<?xml version="1.0" encoding="UTF-8"?>
<svg version="1.1" xmlns="http://www.w3.org/2000/svg" width="77" height="85">
<path d="M0 0 C25.41 0 50.82 0 77 0 C77 28.05 77 56.1 77 85 C51.59 85 26.18 85 0 85 C0 56.95 0 28.9 0 0 Z " fill="#FBFBFA" transform="translate(0,0)"/>
<path d="M0 0 C2.8100346 1.79363911 4.50940468 3.01880935 6 6 C6 14.45958359 2.52883578 20.01163982 -2 27 C-0.68 27 0.64 27 2 27 C1.7525 27.928125 1.7525 27.928125 1.5 28.875 C0.79415848 31.87482646 0.99687437 32.9906231 2 36 C1.01 36 0.02 36 -1 36 C-0.34 37.98 0.32 39.96 1 42 C4.3 42 7.6 42 11 42 C11.66 40.02 12.32 38.04 13 36 C13.33 36.66 13.66 37.32 14 38 C15.32 38 16.64 38 18 38 C18 43.28 18 48.56 18 54 C18.66 54 19.32 54 20 54 C20 54.66 20 55.32 20 56 C18.865625 55.979375 17.73125 55.95875 16.5625 55.9375 C13.18424326 55.58422523 13.18424326 55.58422523 12 57 C7.76685233 57.23961213 4.63263511 57.32488647 1 55 C0.67 55.33 0.34 55.66 0 56 C-6.72 55.28 -6.72 55.28 -8 54 C-8.04092937 51.66702567 -8.04241723 49.33294775 -8 47 C-8.99 47.495 -8.99 47.495 -10 48 C-10.46523063 49.89533342 -10.46523063 49.89533342 -10.625 52.0625 C-10.74875 53.361875 -10.8725 54.66125 -11 56 C-12.65 56 -14.3 56 -16 56 C-16.495 51.05 -16.495 51.05 -17 46 C-17.33 49.3 -17.66 52.6 -18 56 C-19.65 56 -21.3 56 -23 56 C-23.33 55.34 -23.66 54.68 -24 54 C-24.53625 54.33 -25.0725 54.66 -25.625 55 C-28.5929092 56.24964598 -30.80799279 56.27756584 -34 56 C-36.36762941 53.63237059 -36.58455766 52.29940167 -37.25 49.0625 C-37.44078125 48.18722656 -37.6315625 47.31195313 -37.828125 46.41015625 C-38 44 -38 44 -36 41 C-34.34795544 40.29788106 -32.68076231 39.63028587 -31 39 C-28.71271266 37.16116119 -28.71271266 37.16116119 -28.875 34.375 C-28.91625 33.59125 -28.9575 32.8075 -29 32 C-27.68 32 -26.36 32 -25 32 C-25 32.99 -25 33.98 -25 35 C-23.02 33.68 -21.04 32.36 -19 31 C-19.20625 29.948125 -19.4125 28.89625 -19.625 27.8125 C-19.99963104 24.00375113 -19.71630067 22.33164248 -18 19 C-17.34 19 -16.68 19 -16 19 C-16 18.34 -16 17.68 -16 17 C-17.98 17 -19.96 17 -22 17 C-22.29321736 13.26147871 -22.38535037 10.73566889 -20.625 7.375 C-14.68676307 2.00230944 -8.03561988 -1.22577252 0 0 Z " fill="#F6F5F4" transform="translate(46,16)"/>
<path d="M0 0 C0.66 0 1.32 0 2 0 C3.125 5.75 3.125 5.75 2 8 C6.455 7.505 6.455 7.505 11 7 C11.33 5.68 11.66 4.36 12 3 C13.98 2.67 15.96 2.34 18 2 C18.66 3.98 19.32 5.96 20 8 C23.3 8 26.6 8 30 8 C30.66 6.02 31.32 4.04 32 2 C32.495 2.99 32.495 2.99 33 4 C34.32 4 35.64 4 37 4 C37 9.28 37 14.56 37 20 C37.66 20 38.32 20 39 20 C39 20.66 39 21.32 39 22 C37.865625 21.979375 36.73125 21.95875 35.5625 21.9375 C32.18424326 21.58422523 32.18424326 21.58422523 31 23 C26.76685233 23.23961213 23.63263511 23.32488647 20 21 C19.505 21.495 19.505 21.495 19 22 C12.28 21.28 12.28 21.28 11 20 C10.95907063 17.66702567 10.95758277 15.33294775 11 13 C10.01 13.495 10.01 13.495 9 14 C8.53476937 15.89533342 8.53476937 15.89533342 8.375 18.0625 C8.25125 19.361875 8.1275 20.66125 8 22 C6.35 22 4.7 22 3 22 C2.505 17.05 2.505 17.05 2 12 C1.67 15.3 1.34 18.6 1 22 C-0.65 22 -2.3 22 -4 22 C-4.33 21.34 -4.66 20.68 -5 20 C-5.53625 20.33 -6.0725 20.66 -6.625 21 C-9.5929092 22.24964598 -11.80799279 22.27756584 -15 22 C-17 20 -17 20 -17.25 17.5 C-17 15 -17 15 -15 13 C-12.375 12.875 -12.375 12.875 -10 13 C-10 12.01 -10 11.02 -10 10 C-11.98 10.33 -13.96 10.66 -16 11 C-15.67 10.01 -15.34 9.02 -15 8 C-11.625 7.8125 -11.625 7.8125 -8 8 C-6.0549 10.91765 -5.54723683 12.62537285 -5 16 C-4.67 14.02 -4.34 12.04 -4 10 C-4.66 10 -5.32 10 -6 10 C-5.34 7.69 -4.68 5.38 -4 3 C-2.68 2.67 -1.36 2.34 0 2 C0 1.34 0 0.68 0 0 Z " fill="#FEDED7" transform="translate(27,50)"/>
<path d="M0 0 C2.8100346 1.79363911 4.50940468 3.01880935 6 6 C6.15800087 11.54131615 5.14790546 16.02434555 1.6484375 20.36328125 C-3.4342593 25.40984513 -8.74783478 28.84891322 -16 29 C-16.33 28.67 -16.66 28.34 -17 28 C-16.54274354 21.82703777 -16.54274354 21.82703777 -14.6875 19 C-13 18 -13 18 -10.8125 18.3125 C-10.214375 18.539375 -9.61625 18.76625 -9 19 C-10.33333333 21.66666667 -11.66666667 24.33333333 -13 27 C-6.0498893 23.06144705 -6.0498893 23.06144705 -1 17 C-0.19777849 13.310252 -0.19777849 13.310252 0 10 C-4.54130577 10.28383161 -7.28114315 10.98330862 -11.0625 13.5625 C-14.49913254 15.88256127 -16.77003664 16.61901903 -21 16 C-22 15 -22 15 -22.0625 11.8125 C-20.57537884 6.47635936 -17.61675533 4.75771836 -13 2 C-8.87286726 -0.26992301 -4.63263965 -0.78614491 0 0 Z " fill="#E61016" transform="translate(46,16)"/>
<path d="M0 0 C0.66 0 1.32 0 2 0 C3.125 5.75 3.125 5.75 2 8 C4.97 8 7.94 8 11 8 C11 8.66 11 9.32 11 10 C9.68 10 8.36 10 7 10 C7 13.96 7 17.92 7 22 C5.68 22 4.36 22 3 22 C2.505 17.05 2.505 17.05 2 12 C1.67 15.3 1.34 18.6 1 22 C-0.65 22 -2.3 22 -4 22 C-4.33 21.34 -4.66 20.68 -5 20 C-5.53625 20.33 -6.0725 20.66 -6.625 21 C-9.5929092 22.24964598 -11.80799279 22.27756584 -15 22 C-17 20 -17 20 -17.25 17.5 C-17 15 -17 15 -15 13 C-12.375 12.875 -12.375 12.875 -10 13 C-10 12.01 -10 11.02 -10 10 C-11.98 10.33 -13.96 10.66 -16 11 C-15.67 10.01 -15.34 9.02 -15 8 C-11.625 7.8125 -11.625 7.8125 -8 8 C-6.0549 10.91765 -5.54723683 12.62537285 -5 16 C-4.67 14.02 -4.34 12.04 -4 10 C-4.66 10 -5.32 10 -6 10 C-5.34 7.69 -4.68 5.38 -4 3 C-2.68 2.67 -1.36 2.34 0 2 C0 1.34 0 0.68 0 0 Z " fill="#F3BABC" transform="translate(27,50)"/>
<path d="M0 0 C-0.1246507 5.98323378 -2.00968235 8.98619479 -6.078125 13.33203125 C-8.53238049 15.46204567 -10.82429094 16.38034945 -14 17 C-13.37240135 14.07120629 -12.41377341 11.63904371 -11 9 C-12.94074861 9.27617533 -12.94074861 9.27617533 -15 10 C-17.29013653 13.4352048 -17.17842973 14.985331 -17 19 C-18.32 18.67 -19.64 18.34 -21 18 C-20.125 11.25 -20.125 11.25 -19 9 C-18.34 9 -17.68 9 -17 9 C-17 8.34 -17 7.68 -17 7 C-18.98 7 -20.96 7 -23 7 C-22.67 6.34 -22.34 5.68 -22 5 C-21.12472656 5.06316406 -20.24945312 5.12632813 -19.34765625 5.19140625 C-14.57276977 4.9183964 -11.66280453 2.70396709 -7.68359375 0.21484375 C-4.57712317 -1.19143332 -3.19654758 -1.01156569 0 0 Z " fill="#FBE9E9" transform="translate(47,26)"/>
<path d="M0 0 C0.28875 0.94875 0.5775 1.8975 0.875 2.875 C1.76825109 6.05211578 1.76825109 6.05211578 4 8 C3.67 8.66 3.34 9.32 3 10 C2.85624578 13.37822416 2.92463652 15.77390955 4 19 C-3.625 20.25 -3.625 20.25 -7 18 C-7.1875 14.375 -7.1875 14.375 -7 11 C-7.99 11.495 -7.99 11.495 -9 12 C-9.46523063 13.89533342 -9.46523063 13.89533342 -9.625 16.0625 C-9.74875 17.361875 -9.8725 18.66125 -10 20 C-10.33 20 -10.66 20 -11 20 C-11 16.04 -11 12.08 -11 8 C-9.68 8 -8.36 8 -7 8 C-7 7.34 -7 6.68 -7 6 C-8.65 6 -10.3 6 -12 6 C-12 5.67 -12 5.34 -12 5 C-10.35 5 -8.7 5 -7 5 C-6.67 3.68 -6.34 2.36 -6 1 C-3.92446352 0.4465236 -2.15634036 0 0 0 Z " fill="#FCCFC9" transform="translate(45,52)"/>
<path d="M0 0 C1.32 0 2.64 0 4 0 C4 0.99 4 1.98 4 3 C4.94875 2.505 5.8975 2.01 6.875 1.5 C10 0 10 0 12 0 C12 0.66 12 1.32 12 2 C11.34 2 10.68 2 10 2 C10 2.66 10 3.32 10 4 C9.01 4.33 8.02 4.66 7 5 C5.28432339 8.50294871 5.28432339 8.50294871 4 12 C4.66 12 5.32 12 6 12 C6 14.31 6 16.62 6 19 C5.34 18.67 4.68 18.34 4 18 C3.26924352 15.6859378 2.59861742 13.35171131 2 11 C-0.31 11 -2.62 11 -5 11 C-5.33 11.66 -5.66 12.32 -6 13 C-4.02 12.67 -2.04 12.34 0 12 C0 12.99 0 13.98 0 15 C-2.31 15.66 -4.62 16.32 -7 17 C-8.125 14.6875 -8.125 14.6875 -9 12 C-6.74012286 8.61018429 -5.66468831 8.37425812 -2 7 C0.28728734 5.16116119 0.28728734 5.16116119 0.125 2.375 C0.08375 1.59125 0.0425 0.8075 0 0 Z " fill="#FBECEC" transform="translate(17,48)"/>
<path d="M0 0 C3.375 -0.1875 3.375 -0.1875 7 0 C9.07358419 3.11037628 9.29487123 3.99561252 9.3125 7.5625 C9.33763672 8.74005859 9.33763672 8.74005859 9.36328125 9.94140625 C9.18345703 10.96041016 9.18345703 10.96041016 9 12 C5.54754176 14.30163882 4.05261287 14.34490322 0 14 C-2 12 -2 12 -2.25 9.5 C-2 7 -2 7 0 5 C2.625 4.875 2.625 4.875 5 5 C5 4.01 5 3.02 5 2 C3.02 2.33 1.04 2.66 -1 3 C-0.67 2.01 -0.34 1.02 0 0 Z " fill="#C61D25" transform="translate(12,58)"/>
<path d="M0 0 C8.57142857 -0.28571429 8.57142857 -0.28571429 12 2 C12.33 1.67 12.66 1.34 13 1 C14.90401138 2.90401138 15.93520439 4.33425686 16.19921875 7.046875 C16.1886578 9.03233273 16.09915043 11.0169914 16 13 C15.01 13.33 14.02 13.66 13 14 C13.99 14.66 14.98 15.32 16 16 C16 16.66 16 17.32 16 18 C15.01 18 14.02 18 13 18 C13 18.99 13 19.98 13 21 C12.34 21 11.68 21 11 21 C11 21.99 11 22.98 11 24 C10.01 24.33 9.02 24.66 8 25 C7.34 24.01 6.68 23.02 6 22 C6.639375 21.195625 7.27875 20.39125 7.9375 19.5625 C10.51360867 15.6520041 11.49920136 11.67355752 11 7 C8.50490809 3.37077541 6.96099384 2.23571547 2.6875 1.1875 C1.800625 1.125625 0.91375 1.06375 0 1 C0 0.67 0 0.34 0 0 Z " fill="#F5F4F2" transform="translate(40,15)"/>
<path d="M0 0 C0.99 0.99 1.98 1.98 3 3 C-0.04713703 9.78680521 -4.48468682 13.46254468 -11 17 C-13.54997608 17.81635925 -15.29106948 18 -18 18 C-18.33 17.67 -18.66 17.34 -19 17 C-18.54274354 10.82703777 -18.54274354 10.82703777 -16.6875 8 C-15 7 -15 7 -12.8125 7.3125 C-12.214375 7.539375 -11.61625 7.76625 -11 8 C-12.33333333 10.66666667 -13.66666667 13.33333333 -15 16 C-7.63137151 11.79702016 -3.63477312 7.8147622 0 0 Z " fill="#C0252C" transform="translate(48,27)"/>
<path d="M0 0 C2.5 0.4375 2.5 0.4375 4.3125 1.6875 C5.5 3.4375 5.5 3.4375 5.5 7.4375 C2.86 7.4375 0.22 7.4375 -2.5 7.4375 C-1.84 8.7575 -1.18 10.0775 -0.5 11.4375 C1.48 11.4375 3.46 11.4375 5.5 11.4375 C5.5 12.0975 5.5 12.7575 5.5 13.4375 C2.67116253 14.85191874 0.62623255 14.75650332 -2.5 14.4375 C-5.07271448 12.20781412 -5.45311909 10.81254726 -5.875 7.4375 C-5.34465219 3.19471754 -4.42800247 0.77490043 0 0 Z " fill="#DB5258" transform="translate(52.5,57.5625)"/>
<path d="M0 0 C4.88346282 4.1509434 4.88346282 4.1509434 5.4375 8.1875 C5 11 5 11 3 13 C2.67 12.34 2.34 11.68 2 11 C1.01 11.495 1.01 11.495 0 12 C-0.33 11.01 -0.66 10.02 -1 9 C-5.54130577 9.28383161 -8.28114315 9.98330862 -12.0625 12.5625 C-15.50062391 14.89479458 -17.76684204 15.52914475 -22 15 C-22 14.67 -22 14.34 -22 14 C-19.03 13.01 -16.06 12.02 -13 11 C-13 10.34 -13 9.68 -13 9 C-12.22914062 8.85304688 -11.45828125 8.70609375 -10.6640625 8.5546875 C-7.64978836 7.88054393 -4.85679652 7.17988722 -2 6 C-0.15820897 2.99310423 -0.15820897 2.99310423 0 0 Z " fill="#D71217" transform="translate(47,17)"/>
<path d="M0 0 C-0.66 1.65 -1.32 3.3 -2 5 C-0.68 5 0.64 5 2 5 C1.67 6.32 1.34 7.64 1 9 C-2.94647618 9.98844951 -6.27392964 9.96191905 -10.3125 9.5625 C-11.38113281 9.46066406 -12.44976562 9.35882813 -13.55078125 9.25390625 C-14.35902344 9.17011719 -15.16726562 9.08632813 -16 9 C-16 8.34 -16 7.68 -16 7 C-15.11248047 6.74476562 -15.11248047 6.74476562 -14.20703125 6.484375 C-9.67174264 5.09345451 -4.04967659 0 0 0 Z " fill="#F4F7F6" transform="translate(46,38)"/>
<path d="M0 0 C0.99 0 1.98 0 3 0 C3 1.32 3 2.64 3 4 C3.66 4 4.32 4 5 4 C5 4.66 5 5.32 5 6 C4.34 6 3.68 6 3 6 C3.14168137 7.43791516 3.28851043 8.8753237 3.4375 10.3125 C3.51871094 11.11300781 3.59992187 11.91351563 3.68359375 12.73828125 C3.95265693 15.16087179 3.95265693 15.16087179 5 18 C3.68 18 2.36 18 1 18 C-0.59412284 14.81175432 -0.10174735 11.37103338 -0.0625 7.875 C-0.05798828 7.12089844 -0.05347656 6.36679687 -0.04882812 5.58984375 C-0.03703499 3.72652873 -0.01909942 1.86325445 0 0 Z " fill="#C5151F" transform="translate(40,54)"/>
<path d="M0 0 C0 0.66 0 1.32 0 2 C-1.32 2 -2.64 2 -4 2 C-4 5.96 -4 9.92 -4 14 C-5.32 14 -6.64 14 -8 14 C-8.08082094 12.04233719 -8.13910778 10.08373272 -8.1875 8.125 C-8.22230469 7.03445312 -8.25710937 5.94390625 -8.29296875 4.8203125 C-8.19628906 3.88960937 -8.09960938 2.95890625 -8 2 C-4.77208445 -0.1519437 -3.71599191 -0.20086443 0 0 Z " fill="#D1252F" transform="translate(38,58)"/>
<path d="M0 0 C-0.66 2.31 -1.32 4.62 -2 7 C-5.3 7.66 -8.6 8.32 -12 9 C-11.67 8.34 -11.34 7.68 -11 7 C-10.34 7 -9.68 7 -9 7 C-9.33 5.35 -9.66 3.7 -10 2 C-3.375 0 -3.375 0 0 0 Z " fill="#ED0C17" transform="translate(47,17)"/>
<path d="M0 0 C0.99 0 1.98 0 3 0 C3 5.28 3 10.56 3 16 C3.66 16 4.32 16 5 16 C5 16.66 5 17.32 5 18 C3.35 17.67 1.7 17.34 0 17 C0 11.39 0 5.78 0 0 Z " fill="#C7161C" transform="translate(61,54)"/>
<path d="M0 0 C0.99 0.33 1.98 0.66 3 1 C2.67 3.31 2.34 5.62 2 8 C5.465 7.505 5.465 7.505 9 7 C8.34 8.32 7.68 9.64 7 11 C4.03 11 1.06 11 -2 11 C-1.34 7.37 -0.68 3.74 0 0 Z " fill="#FBF0E8" transform="translate(50,48)"/>
<path d="M0 0 C-1.7004413 1.13362753 -3.42031065 2.24199704 -5.19140625 3.26171875 C-10.70792274 6.44617936 -10.70792274 6.44617936 -13.5625 11.875 C-13.7790625 13.421875 -13.7790625 13.421875 -14 15 C-14.66 15 -15.32 15 -16 15 C-15.4140625 8.84765625 -15.4140625 8.84765625 -15 7 C-14.34 6.67 -13.68 6.34 -13 6 C-12.7525 5.360625 -12.505 4.72125 -12.25 4.0625 C-11 2 -11 2 -8.1875 0.75 C-5.30183036 0.07101891 -2.94417035 -0.17318649 0 0 Z " fill="#FEDCDD" transform="translate(38,16)"/>
<path d="M0 0 C0.33 0 0.66 0 1 0 C1 4.95 1 9.9 1 15 C0.67 15 0.34 15 0 15 C0 12.69 0 10.38 0 8 C-0.99 8.495 -0.99 8.495 -2 9 C-2.46523063 10.89533342 -2.46523063 10.89533342 -2.625 13.0625 C-2.74875 14.361875 -2.8725 15.66125 -3 17 C-3.33 17 -3.66 17 -4 17 C-4 13.04 -4 9.08 -4 5 C-2.68 5 -1.36 5 0 5 C0 4.34 0 3.68 0 3 C-1.65 3 -3.3 3 -5 3 C-5 2.67 -5 2.34 -5 2 C-3.35 2 -1.7 2 0 2 C0 1.34 0 0.68 0 0 Z " fill="#FDE5DD" transform="translate(38,55)"/>
<path d="M0 0 C0.99 0 1.98 0 3 0 C3 4.62 3 9.24 3 14 C2.01 14 1.02 14 0 14 C0 9.38 0 4.76 0 0 Z " fill="#C01920" transform="translate(24,58)"/>
<path d="M0 0 C0.598125 0.226875 1.19625 0.45375 1.8125 0.6875 C0.47916667 3.35416667 -0.85416667 6.02083333 -2.1875 8.6875 C-3.5075 8.6875 -4.8275 8.6875 -6.1875 8.6875 C-5.58623418 3.27610759 -5.58623418 3.27610759 -3.875 0.75 C-2.1875 -0.3125 -2.1875 -0.3125 0 0 Z " fill="#CB191F" transform="translate(35.1875,34.3125)"/>
<path d="M0 0 C2.64 0 5.28 0 8 0 C8.6875 1.75 8.6875 1.75 9 4 C8.525625 4.61875 8.05125 5.2375 7.5625 5.875 C5.50331102 8.67549701 5.7686761 10.60724951 6 14 C4.68 13.67 3.36 13.34 2 13 C2.875 6.25 2.875 6.25 4 4 C4.66 4 5.32 4 6 4 C6 3.34 6 2.68 6 2 C4.02 2 2.04 2 0 2 C0 1.34 0 0.68 0 0 Z " fill="#FACACB" transform="translate(24,31)"/>
<path d="M0 0 C-2 2 -2 2 -5.625 2.3125 C-10.53376347 2.80516787 -14.20173133 4.91502122 -18 8 C-18.99 9.485 -18.99 9.485 -20 11 C-20.66 10.67 -21.32 10.34 -22 10 C-17.09444373 2.19570593 -8.86028496 -0.82039676 0 0 Z " fill="#C81D22" transform="translate(46,16)"/>
<path d="M0 0 C0 0.66 0 1.32 0 2 C-0.99 2 -1.98 2 -3 2 C-3 2.99 -3 3.98 -3 5 C-3.66 5 -4.32 5 -5 5 C-5 5.99 -5 6.98 -5 8 C-5.99 8.33 -6.98 8.66 -8 9 C-8.66 8.01 -9.32 7.02 -10 6 C-6.57724958 0.25466893 -6.57724958 0.25466893 -3.875 -0.9375 C-2 -1 -2 -1 0 0 Z " fill="#FAEBE7" transform="translate(56,31)"/>
<path d="M0 0 C0.66 0 1.32 0 2 0 C2.33 2.31 2.66 4.62 3 7 C5.31 7.66 7.62 8.32 10 9 C6.61899179 12.01875733 6.61899179 12.01875733 3.9375 11.9375 C1.33340865 10.6774558 0.37770443 9.5487532 -1 7 C-1.25 3.8125 -1.25 3.8125 -1 1 C-0.67 0.67 -0.34 0.34 0 0 Z " fill="#F6F4FB" transform="translate(36,63)"/>
<path d="M0 0 C2.5625 0.3125 2.5625 0.3125 4.375 1.5625 C5.5625 3.3125 5.5625 3.3125 5.5625 7.3125 C3.2525 7.3125 0.9425 7.3125 -1.4375 7.3125 C-0.9425 6.85875 -0.4475 6.405 0.0625 5.9375 C1.78859337 4.43614481 1.78859337 4.43614481 1.5625 2.3125 C0.5725 2.3125 -0.4175 2.3125 -1.4375 2.3125 C-1.7675 2.9725 -2.0975 3.6325 -2.4375 4.3125 C-3.0975 3.6525 -3.7575 2.9925 -4.4375 2.3125 C-2.4375 0.3125 -2.4375 0.3125 0 0 Z " fill="#BB1A22" transform="translate(52.4375,57.6875)"/>
<path d="M0 0 C3.625 -0.1875 3.625 -0.1875 7 0 C7 0.33 7 0.66 7 1 C5.7934375 1.185625 5.7934375 1.185625 4.5625 1.375 C3.716875 1.58125 2.87125 1.7875 2 2 C1.67 2.66 1.34 3.32 1 4 C2.98 3.67 4.96 3.34 7 3 C7 3.99 7 4.98 7 6 C4.69 6.66 2.38 7.32 0 8 C-1.125 5.6875 -1.125 5.6875 -2 3 C-1.34 2.01 -0.68 1.02 0 0 Z " fill="#FDDAD7" transform="translate(10,57)"/>
<path d="M0 0 C0.66 0 1.32 0 2 0 C2.33 0.99 2.66 1.98 3 3 C4.32 2.67 5.64 2.34 7 2 C4.11658466 6.21422242 1.95696581 7.76075855 -3 9 C-2.37106494 6.06496971 -1.37599935 3.66026541 0 1 C0 0.67 0 0.34 0 0 Z " fill="#FBC7C4" transform="translate(36,34)"/>
<path d="M0 0 C1.65 0 3.3 0 5 0 C6 3 6 3 5 6 C2 7 2 7 -0.1875 6.0625 C-0.785625 5.711875 -1.38375 5.36125 -2 5 C-1.34 3.35 -0.68 1.7 0 0 Z " fill="#F7F7F9" transform="translate(40,27)"/>
<path d="M0 0 C0.33 0.66 0.66 1.32 1 2 C0.01 3.485 0.01 3.485 -1 5 C-3.3828125 5.29296875 -3.3828125 5.29296875 -6.125 5.1875 C-7.03507813 5.16042969 -7.94515625 5.13335937 -8.8828125 5.10546875 C-9.58148438 5.07066406 -10.28015625 5.03585938 -11 5 C-11.33 3.68 -11.66 2.36 -12 1 C-11.01 1.495 -11.01 1.495 -10 2 C-6.04437178 2.25797575 -3.40340307 2.09440189 0 0 Z " fill="#FBE6DE" transform="translate(22,69)"/>
<path d="M0 0 C2 2 2 2 2.1953125 5.6953125 C2.182009 7.17200108 2.15814835 8.64862358 2.125 10.125 C2.11597656 10.87910156 2.10695313 11.63320313 2.09765625 12.41015625 C2.0740687 14.27357254 2.03819719 16.13682593 2 18 C1.67 18 1.34 18 1 18 C1 14.7 1 11.4 1 8 C0.01 8.33 -0.98 8.66 -2 9 C-2.66 8.01 -3.32 7.02 -4 6 C-3.01 5.67 -2.02 5.34 -1 5 C-0.67 3.35 -0.34 1.7 0 0 Z " fill="#F8ABAA" transform="translate(59,52)"/>
<path d="M0 0 C0.37125 0.66 0.7425 1.32 1.125 2 C2.90894778 4.35303045 2.90894778 4.35303045 6.1875 4.25 C7.115625 4.1675 8.04375 4.085 9 4 C9 4.66 9 5.32 9 6 C6.23749964 7.38125018 4.05268901 7.19079306 1 7 C0.34 6.34 -0.32 5.68 -1 5 C-0.625 2.375 -0.625 2.375 0 0 Z " fill="#BD1C22" transform="translate(49,65)"/>
<path d="M0 0 C-5.34000159 4.27200127 -9.91501481 7.69121807 -17 7 C-17 6.67 -17 6.34 -17 6 C-14.03 5.01 -11.06 4.02 -8 3 C-8 2.34 -8 1.68 -8 1 C-5.07175348 0.02391783 -3.04386724 -0.08226668 0 0 Z " fill="#C71D24" transform="translate(42,25)"/>
<path d="M0 0 C0.66 0 1.32 0 2 0 C2 2.64 2 5.28 2 8 C-0.31 8 -2.62 8 -5 8 C-5.33 7.34 -5.66 6.68 -6 6 C-4.02 6 -2.04 6 0 6 C0 4.02 0 2.04 0 0 Z " fill="#FCEDE8" transform="translate(58,60)"/>
<path d="M0 0 C0.33 0.99 0.66 1.98 1 3 C1.99 3 2.98 3 4 3 C3.67 3.99 3.34 4.98 3 6 C0.36 6 -2.28 6 -5 6 C-3.35 4.02 -1.7 2.04 0 0 Z " fill="#F5F7EE" transform="translate(18,51)"/>
<path d="M0 0 C0 1.32 0 2.64 0 4 C-2.97 3.67 -5.94 3.34 -9 3 C-9 2.34 -9 1.68 -9 1 C-2.25 -1.125 -2.25 -1.125 0 0 Z " fill="#FCE6E2" transform="translate(39,44)"/>
<path d="M0 0 C1.65 0 3.3 0 5 0 C4.67 1.65 4.34 3.3 4 5 C2.68 5.33 1.36 5.66 0 6 C-1.125 2.25 -1.125 2.25 0 0 Z " fill="#EFF9F8" transform="translate(17,25)"/>
<path d="M0 0 C-0.33 2.31 -0.66 4.62 -1 7 C-2 4 -2 4 -2 2 C-4.31 2 -6.62 2 -9 2 C-6.98558063 -2.02883874 -3.72407517 -0.90585612 0 0 Z " fill="#FCD4CF" transform="translate(47,26)"/>
<path d="M0 0 C2.18975773 3.28463659 2.99806563 6.20696275 4 10 C2.68 10 1.36 10 0 10 C0 6.7 0 3.4 0 0 Z " fill="#CA1F32" transform="translate(41,62)"/>
<path d="M0 0 C-0.66 1.65 -1.32 3.3 -2 5 C-1.01 5.33 -0.02 5.66 1 6 C-1.64 5.67 -4.28 5.34 -7 5 C-2.25 0 -2.25 0 0 0 Z " fill="#FAE2E3" transform="translate(46,38)"/>
<path d="M0 0 C0.99 0 1.98 0 3 0 C3.19477739 1.62414378 3.38059458 3.24936423 3.5625 4.875 C3.66691406 5.77992187 3.77132812 6.68484375 3.87890625 7.6171875 C4 10 4 10 3 12 C2.34 12 1.68 12 1 12 C1.01740234 11.07767578 1.01740234 11.07767578 1.03515625 10.13671875 C1.04417969 9.32847656 1.05320313 8.52023438 1.0625 7.6875 C1.07410156 6.88699219 1.08570313 6.08648437 1.09765625 5.26171875 C1.09657855 2.83138666 1.09657855 2.83138666 0 0 Z " fill="#FAD8D1" transform="translate(50,19)"/>
<path d="M0 0 C2.64 0 5.28 0 8 0 C8 0.33 8 0.66 8 1 C6.35 1.33 4.7 1.66 3 2 C3.99 2.99 4.98 3.98 6 5 C4.35 4.67 2.7 4.34 1 4 C0.67 2.68 0.34 1.36 0 0 Z " fill="#FAB7B1" transform="translate(50,65)"/>
<path d="M0 0 C0.99 0.33 1.98 0.66 3 1 C3 2.65 3 4.3 3 6 C0 6 0 6 -2 5 C-2 4.34 -2 3.68 -2 3 C-1.34 3 -0.68 3 0 3 C0 2.01 0 1.02 0 0 Z " fill="#EBF9F3" transform="translate(53,33)"/>
<path d="M0 0 C2.64 0.66 5.28 1.32 8 2 C6.25 3.5625 6.25 3.5625 4 5 C1.75 4.6875 1.75 4.6875 0 4 C0 2.68 0 1.36 0 0 Z " fill="#FBF4EB" transform="translate(38,70)"/>
<path d="M0 0 C1.32 0 2.64 0 4 0 C3.67 1.65 3.34 3.3 3 5 C2.01 5 1.02 5 0 5 C0 3.35 0 1.7 0 0 Z " fill="#FAC3BA" transform="translate(14,65)"/>
<path d="M0 0 C2.31 0 4.62 0 7 0 C6.67 1.65 6.34 3.3 6 5 C5.67 4.01 5.34 3.02 5 2 C3.02 2.33 1.04 2.66 -1 3 C-0.67 2.01 -0.34 1.02 0 0 Z " fill="#C12C41" transform="translate(12,58)"/>
<path d="M0 0 C0.66 0 1.32 0 2 0 C2.33 2.64 2.66 5.28 3 8 C1.68 7.67 0.36 7.34 -1 7 C-0.67 4.69 -0.34 2.38 0 0 Z " fill="#FBE2DD" transform="translate(27,37)"/>
<path d="M0 0 C0.99 0 1.98 0 3 0 C2.67 1.32 2.34 2.64 2 4 C1.34 4 0.68 4 0 4 C-0.33 4.66 -0.66 5.32 -1 6 C-1.33 5.34 -1.66 4.68 -2 4 C-1.0625 1.875 -1.0625 1.875 0 0 Z " fill="#EFFAFA" transform="translate(35,49)"/>
<path d="M0 0 C2 2 2 2 2 6 C1.01 6.33 0.02 6.66 -1 7 C-1.625 4.625 -1.625 4.625 -2 2 C-1.34 1.34 -0.68 0.68 0 0 Z " fill="#E41310" transform="translate(36,18)"/>
<path d="M0 0 C8.57142857 -0.28571429 8.57142857 -0.28571429 12 2 C11.01 2.66 10.02 3.32 9 4 C8.01 3.34 7.02 2.68 6 2 C4.0103005 1.60986284 2.00980131 1.26797351 0 1 C0 0.67 0 0.34 0 0 Z " fill="#FAD3D1" transform="translate(40,15)"/>
<path d="M0 0 C0.78375 0.04125 1.5675 0.0825 2.375 0.125 C2.045 1.445 1.715 2.765 1.375 4.125 C1.375 3.465 1.375 2.805 1.375 2.125 C0.385 2.125 -0.605 2.125 -1.625 2.125 C-1.955 2.785 -2.285 3.445 -2.625 4.125 C-3.285 3.465 -3.945 2.805 -4.625 2.125 C-2.625 0.125 -2.625 0.125 0 0 Z " fill="#C61526" transform="translate(52.625,57.875)"/>
<path d="M0 0 C2 1.375 2 1.375 4 3 C4 3.66 4 4.32 4 5 C2.35 5 0.7 5 -1 5 C-0.67 3.35 -0.34 1.7 0 0 Z " fill="#C91A24" transform="translate(47,17)"/>
</svg>
