<?xml version="1.0" encoding="UTF-8"?>
<svg version="1.1" xmlns="http://www.w3.org/2000/svg" width="67" height="65">
<path d="M0 0 C22.11 0 44.22 0 67 0 C67 21.45 67 42.9 67 65 C44.89 65 22.78 65 0 65 C0 43.55 0 22.1 0 0 Z " fill="#030404" transform="translate(0,0)"/>
<path d="M0 0 C4.67355379 0.85539254 8.97809263 2.60791559 13.34765625 4.4296875 C14.42015625 4.8421875 15.49265625 5.2546875 16.59765625 5.6796875 C20.7392488 8.31524639 23.97463609 11.07685111 26.34765625 15.4296875 C26.77081016 18.68064881 26.73587791 21.62459934 26.49609375 24.890625 C26.13633238 27.42258291 26.13633238 27.42258291 27.34765625 29.4296875 C27.04085937 30.03296875 26.7340625 30.63625 26.41796875 31.2578125 C25.17784804 33.77426183 25.14080639 35.39679237 25.22265625 38.1796875 C25.24070313 38.97890625 25.25875 39.778125 25.27734375 40.6015625 C25.30054688 41.20484375 25.32375 41.808125 25.34765625 42.4296875 C19.99886831 43.86791714 15.85047017 44.73988129 10.34765625 43.4296875 C9.35765625 43.4296875 8.36765625 43.4296875 7.34765625 43.4296875 C4.68098958 43.4296875 2.01432292 43.4296875 -0.65234375 43.4296875 C-1.31234375 42.1096875 -1.97234375 40.7896875 -2.65234375 39.4296875 C-2.65234375 40.4196875 -2.65234375 41.4096875 -2.65234375 42.4296875 C-4.3184628 42.4724085 -5.9861726 42.47032582 -7.65234375 42.4296875 C-7.98234375 42.0996875 -8.31234375 41.7696875 -8.65234375 41.4296875 C-8.61454302 39.78099433 -8.49764073 38.13374718 -8.33984375 36.4921875 C-8.26121094 35.59628906 -8.18257812 34.70039062 -8.1015625 33.77734375 C-7.65234375 31.4296875 -7.65234375 31.4296875 -5.65234375 29.4296875 C-5.44233939 24.69958931 -6.64135601 20.16293877 -8.21484375 15.7421875 C-9.48090525 12.13829956 -10.26581263 9.28577757 -9.65234375 5.4296875 C-7.29998115 0.92099252 -5.12758962 -0.32586551 0 0 Z " fill="#839E45" transform="translate(24.65234375,11.5703125)"/>
<path d="M0 0 C22.11 0 44.22 0 67 0 C67 21.45 67 42.9 67 65 C44.89 65 22.78 65 0 65 C0 43.55 0 22.1 0 0 Z M4.83837891 4.83837891 C2.08281355 9.5773658 2.28405379 13.85615869 2.3359375 19.25 C2.33115387 20.34086914 2.32637024 21.43173828 2.32144165 22.55566406 C2.31804387 24.85873865 2.32723757 27.16186155 2.34814453 29.46484375 C2.3749094 32.98807417 2.34838999 36.50811856 2.31640625 40.03125 C2.31971037 42.27084036 2.32611663 44.51042874 2.3359375 46.75 C2.32581635 47.80219727 2.31569519 48.85439453 2.30526733 49.93847656 C2.37691745 54.41420524 2.56216802 57.24702202 4.83837891 61.16162109 C9.5773658 63.91718645 13.85615869 63.71594621 19.25 63.6640625 C20.34086914 63.66884613 21.43173828 63.67362976 22.55566406 63.67855835 C24.85873865 63.68195613 27.16186155 63.67276243 29.46484375 63.65185547 C32.98807417 63.6250906 36.50811856 63.65161001 40.03125 63.68359375 C42.27084036 63.68028963 44.51042874 63.67388337 46.75 63.6640625 C47.80219727 63.67418365 48.85439453 63.68430481 49.93847656 63.69473267 C54.41420524 63.62308255 57.24702202 63.43783198 61.16162109 61.16162109 C63.91718645 56.4226342 63.71594621 52.14384131 63.6640625 46.75 C63.66884613 45.65913086 63.67362976 44.56826172 63.67855835 43.44433594 C63.68195613 41.14126135 63.67276243 38.83813845 63.65185547 36.53515625 C63.6250906 33.01192583 63.65161001 29.49188144 63.68359375 25.96875 C63.68028963 23.72915964 63.67388337 21.48957126 63.6640625 19.25 C63.67418365 18.19780273 63.68430481 17.14560547 63.69473267 16.06152344 C63.62308255 11.58579476 63.43783198 8.75297798 61.16162109 4.83837891 C56.4226342 2.08281355 52.14384131 2.28405379 46.75 2.3359375 C45.65913086 2.33115387 44.56826172 2.32637024 43.44433594 2.32144165 C41.14126135 2.31804387 38.83813845 2.32723757 36.53515625 2.34814453 C33.01192583 2.3749094 29.49188144 2.34838999 25.96875 2.31640625 C23.72915964 2.31971037 21.48957126 2.32611663 19.25 2.3359375 C18.19780273 2.32581635 17.14560547 2.31569519 16.06152344 2.30526733 C11.58579476 2.37691745 8.75297798 2.56216802 4.83837891 4.83837891 Z " fill="#FDFDFD" transform="translate(0,0)"/>
<path d="M0 0 C0.66 0 1.32 0 2 0 C3.25126646 5.50557244 3.25126646 5.50557244 2.03125 7.90625 C0.81543161 10.37472975 0.79466021 12.0184472 0.875 14.75 C0.89304688 15.54921875 0.91109375 16.3484375 0.9296875 17.171875 C0.95289063 17.77515625 0.97609375 18.3784375 1 19 C-4.34878794 20.43822964 -8.49718608 21.31019379 -14 20 C-14.99 20 -15.98 20 -17 20 C-19.66666667 20 -22.33333333 20 -25 20 C-25.66 18.68 -26.32 17.36 -27 16 C-27 16.99 -27 17.98 -27 19 C-28.66611905 19.042721 -30.33382885 19.04063832 -32 19 C-33 18 -33 18 -33.01953125 15.890625 C-32.59005397 10.41276384 -32.128566 6.99538645 -28 3 C-27.67 5.31 -27.34 7.62 -27 10 C-12.48047853 6.52784612 -12.48047853 6.52784612 0 0 Z " fill="#0A0B0B" transform="translate(49,35)"/>
<path d="M0 0 C0.33 0.99 0.66 1.98 1 3 C1 2.01 1 1.02 1 0 C4.465 -0.495 4.465 -0.495 8 -1 C8 0.32 8 1.64 8 3 C8.33 2.01 8.66 1.02 9 0 C12.465 -0.495 12.465 -0.495 16 -1 C17 2 17 2 17 6 C11.65121206 7.43822964 7.50281392 8.31019379 2 7 C1.01 7 0.02 7 -1 7 C-3.66666667 7 -6.33333333 7 -9 7 C-9.66 5.68 -10.32 4.36 -11 3 C-11 3.99 -11 4.98 -11 6 C-12.65 6 -14.3 6 -16 6 C-16.625 4.125 -16.625 4.125 -17 2 C-12.55555056 -2.44444944 -5.67990807 -1.2982647 0 0 Z " fill="#666666" transform="translate(33,48)"/>
<path d="M0 0 C4.47052103 0.14657446 7.09944956 0.49344037 11 2.6875 C13 5 13 5 13.6875 8 C13 11 13 11 10.4375 13.375 C6.63127225 15.17430766 4.15723417 15.33257873 0 15 C-1.75210338 10.51023509 -2.37076135 6.81989758 -2 2 C-1.34 1.34 -0.68 0.68 0 0 Z " fill="#070D01" transform="translate(25,23)"/>
<path d="M0 0 C5.63803373 0.06084209 10.48534053 2.16965736 15.625 4.3125 C16.6975 4.725 17.77 5.1375 18.875 5.5625 C22.93287209 8.14478224 25.96928055 11.30228753 28.625 15.3125 C29.41281619 19.03672201 29.17386781 20.38940414 27.25 23.625 C23.29664537 26.16644226 19.24232442 26.13626624 14.625 26.3125 C14.625 25.6525 14.625 24.9925 14.625 24.3125 C17.1864657 22.01601351 18.10467572 21.3125 21.625 21.3125 C21.955 18.0125 22.285 14.7125 22.625 11.3125 C20.15 10.8175 20.15 10.8175 17.625 10.3125 C17.49931641 9.37470703 17.49931641 9.37470703 17.37109375 8.41796875 C16.83480919 6.18889114 16.83480919 6.18889114 14.91015625 5.30078125 C9.82465258 3.75457363 5.00078128 2.87241051 -0.30859375 2.5234375 C-2.375 2.3125 -2.375 2.3125 -4.375 1.3125 C-3.375 0.3125 -3.375 0.3125 0 0 Z " fill="#67812C" transform="translate(22.375,11.6875)"/>
<path d="M0 0 C4.60195283 -0.83079502 8.86023414 -0.50149698 13.125 1.375 C13.74375 1.91125 14.3625 2.4475 15 3 C15 3.66 15 4.32 15 5 C15.99 5 16.98 5 18 5 C20.16551116 8.24826674 20.55156953 9.23094157 20 13 C18.125 15.3125 18.125 15.3125 16 17 C15.34 17 14.68 17 14 17 C14.0825 15.741875 14.165 14.48375 14.25 13.1875 C14.25652675 9.84873364 14.25652675 9.84873364 12.5 7.0625 C8.95401589 5.55545675 5.85115007 5.25253443 2 5 C0.50256881 6.49743119 0.66797307 7.98824239 0.4375 10.0625 C0.2209375 12.0115625 0.2209375 12.0115625 0 14 C-0.33 14 -0.66 14 -1 14 C-1.22226864 12.23086176 -1.42733873 10.45955629 -1.625 8.6875 C-1.74101562 7.70136719 -1.85703125 6.71523438 -1.9765625 5.69921875 C-2 3 -2 3 0 0 Z " fill="#B7CF45" transform="translate(23,19)"/>
<path d="M0 0 C2 1 2 1 3.125 4.0625 C3.41375 5.031875 3.7025 6.00125 4 7 C4.66 6.34 5.32 5.68 6 5 C6.33 6.32 6.66 7.64 7 9 C8.43793392 8.68950274 9.8753318 8.3765224 11.3125 8.0625 C12.11300781 7.88847656 12.91351563 7.71445312 13.73828125 7.53515625 C16.145401 7.00113841 16.145401 7.00113841 19 6 C19.66 6.66 20.32 7.32 21 8 C22.9931567 8.02375926 22.9931567 8.02375926 25.125 7.625 C27.043125 7.315625 27.043125 7.315625 29 7 C26.74943934 9.56408272 24.90071345 10.60101748 21.65625 11.60546875 C20.82222656 11.86650391 19.98820312 12.12753906 19.12890625 12.39648438 C18.26136719 12.65751953 17.39382812 12.91855469 16.5 13.1875 C15.63246094 13.46013672 14.76492187 13.73277344 13.87109375 14.01367188 C7.42921758 16 7.42921758 16 4 16 C3.32815382 13.89748139 2.66269032 11.79292237 2 9.6875 C1.443125 7.92986328 1.443125 7.92986328 0.875 6.13671875 C0 3 0 3 0 0 Z " fill="#99AD57" transform="translate(18,29)"/>
<path d="M0 0 C9.60726966 -1.42413644 16.74766428 2.6867792 25 7 C24.67 10.3 24.34 13.6 24 17 C23.34 16.67 22.68 16.34 22 16 C22.020625 15.236875 22.04125 14.47375 22.0625 13.6875 C22.12942841 10.89814214 22.12942841 10.89814214 21 8 C20.01 8 19.02 8 18 8 C18 7.34 18 6.68 18 6 C13.13948404 3.40772482 8.34728867 3.81310447 3 4 C2.34 6.31 1.68 8.62 1 11 C-0.32 10.34 -1.64 9.68 -3 9 C-2.30058404 5.85262818 -1.23921302 2.97411124 0 0 Z " fill="#84A524" transform="translate(20,16)"/>
<path d="M0 0 C0.33 1.65 0.66 3.3 1 5 C1.99 5.33 2.98 5.66 4 6 C4 6.66 4 7.32 4 8 C1.36 8 -1.28 8 -4 8 C-4.66 6.68 -5.32 5.36 -6 4 C-6 4.99 -6 5.98 -6 7 C-7.65 7 -9.3 7 -11 7 C-11.625 5.125 -11.625 5.125 -12 3 C-8.62446616 -0.37553384 -4.59080647 -0.1311659 0 0 Z " fill="#555555" transform="translate(28,47)"/>
<path d="M0 0 C2 3 2 3 2 7 C6.95 5.515 6.95 5.515 12 4 C11.34 5.65 10.68 7.3 10 9 C8.989375 9.12375 7.97875 9.2475 6.9375 9.375 C3.12062388 9.98085335 -0.31500112 10.87193912 -4 12 C-3.5317879 7.22423661 -2.75668002 3.95523655 0 0 Z " fill="#10170C" transform="translate(20,38)"/>
<path d="M0 0 C0.66 0.33 1.32 0.66 2 1 C1.6875 4.375 1.6875 4.375 1 8 C0.01 8.66 -0.98 9.32 -2 10 C-2.99 9.67 -3.98 9.34 -5 9 C-4.67 8.38125 -4.34 7.7625 -4 7.125 C-2.85806765 5.08981656 -2.85806765 5.08981656 -3 3 C-3.99 3.33 -4.98 3.66 -6 4 C-6.99 3.67 -7.98 3.34 -9 3 C-9 2.01 -9 1.02 -9 0 C-5.90914327 -1.54542837 -3.32167685 -0.59315658 0 0 Z " fill="#040310" transform="translate(34,26)"/>
<path d="M0 0 C2.31 0 4.62 0 7 0 C7.33 0.99 7.66 1.98 8 3 C8.66 3.33 9.32 3.66 10 4 C8.68 3.67 7.36 3.34 6 3 C5.566875 4.7015625 5.566875 4.7015625 5.125 6.4375 C4.75375 7.613125 4.3825 8.78875 4 10 C3.01 10.495 3.01 10.495 2 11 C2 9.35 2 7.7 2 6 C1.01 5.67 0.02 5.34 -1 5 C-0.67 3.35 -0.34 1.7 0 0 Z " fill="#030403" transform="translate(39,40)"/>
<path d="M0 0 C7.15618661 0.34077079 7.15618661 0.34077079 10 2.5625 C10.33 3.036875 10.66 3.51125 11 4 C7.88531795 4 5.06512217 3.52172292 2 3 C1.34 3 0.68 3 0 3 C0 4.65 0 6.3 0 8 C-0.99 8.495 -0.99 8.495 -2 9 C-2.125 5.625 -2.125 5.625 -2 2 C-1.34 1.34 -0.68 0.68 0 0 Z " fill="#1C2103" transform="translate(25,23)"/>
<path d="M0 0 C0.33 2.31 0.66 4.62 1 7 C0.34 7 -0.32 7 -1 7 C-1.33 6.01 -1.66 5.02 -2 4 C-2 4.99 -2 5.98 -2 7 C-3.65 7 -5.3 7 -7 7 C-7.625 5.125 -7.625 5.125 -8 3 C-5.61366383 0.61366383 -3.39611399 0 0 0 Z " fill="#AFAFB0" transform="translate(24,47)"/>
<path d="M0 0 C4.00833116 0.61666633 6.77995678 2.61996805 10 5 C12.29013653 8.4352048 12.17842973 9.985331 12 14 C11.67 14 11.34 14 11 14 C10.67 12.35 10.34 10.7 10 9 C8.68 8.67 7.36 8.34 6 8 C6 6.68 6 5.36 6 4 C4.35 3.67 2.7 3.34 1 3 C0.67 2.01 0.34 1.02 0 0 Z " fill="#657C37" transform="translate(39,19)"/>
<path d="M0 0 C1.32 0 2.64 0 4 0 C4.33 0.99 4.66 1.98 5 3 C7.00016466 4.20882096 7.00016466 4.20882096 9 5 C8.67 4.01 8.34 3.02 8 2 C8.66 2 9.32 2 10 2 C10 3.32 10 4.64 10 6 C6.7 6 3.4 6 0 6 C0 4.02 0 2.04 0 0 Z " fill="#B9B9BA" transform="translate(29,48)"/>
<path d="M0 0 C0 2.31 0 4.62 0 7 C-0.66 7 -1.32 7 -2 7 C-2 5.68 -2 4.36 -2 3 C-2.33 3.99 -2.66 4.98 -3 6 C-3.99 5.67 -4.98 5.34 -6 5 C-6.6875 2.9375 -6.6875 2.9375 -7 1 C-2.25 0 -2.25 0 0 0 Z " fill="#838383" transform="translate(41,47)"/>
<path d="M0 0 C1.875 0.625 1.875 0.625 4 2 C5.25 5.125 5.25 5.125 6 8 C5.01 8.99 4.02 9.98 3 11 C2.49384702 9.73160474 1.99530901 8.46016898 1.5 7.1875 C1.2215625 6.47980469 0.943125 5.77210937 0.65625 5.04296875 C0 3 0 3 0 0 Z " fill="#7F9933" transform="translate(18,26)"/>
<path d="M0 0 C-0.33 1.32 -0.66 2.64 -1 4 C-3.97 4.66 -6.94 5.32 -10 6 C-10 5.34 -10 4.68 -10 4 C-8.71086513 3.32845067 -7.41859796 2.66291141 -6.125 2 C-5.40570313 1.62875 -4.68640625 1.2575 -3.9453125 0.875 C-2 0 -2 0 0 0 Z " fill="#0E1304" transform="translate(51,35)"/>
<path d="M0 0 C1.32 0.33 2.64 0.66 4 1 C4 2.65 4 4.3 4 6 C2.68 6 1.36 6 0 6 C0 4.02 0 2.04 0 0 Z " fill="#A1A1A1" transform="translate(42,48)"/>
<path d="M0 0 C-0.33 2.31 -0.66 4.62 -1 7 C-2.32 6.34 -3.64 5.68 -5 5 C-4.625 3.0625 -4.625 3.0625 -4 1 C-2 0 -2 0 0 0 Z " fill="#819F15" transform="translate(22,20)"/>
<path d="M0 0 C3.625 -0.1875 3.625 -0.1875 7 0 C7 0.33 7 0.66 7 1 C5.35 1.33 3.7 1.66 2 2 C1.67 3.98 1.34 5.96 1 8 C0.87625 7.360625 0.7525 6.72125 0.625 6.0625 C0.315625 5.0415625 0.315625 5.0415625 0 4 C-0.66 3.67 -1.32 3.34 -2 3 C-1.34 2.01 -0.68 1.02 0 0 Z " fill="#7D9847" transform="translate(17,14)"/>
<path d="M0 0 C1.5 1.3125 1.5 1.3125 3 3 C3 3.99 3 4.98 3 6 C2.01 6.33 1.02 6.66 0 7 C-0.38133299 5.0085944 -0.71325582 3.00720923 -1 1 C-0.67 0.67 -0.34 0.34 0 0 Z " fill="#819C2C" transform="translate(23,37)"/>
<path d="M0 0 C0.66 0.33 1.32 0.66 2 1 C2 3.31 2 5.62 2 8 C1.01 8.495 1.01 8.495 0 9 C-1.15941038 5.52176885 -0.70820884 3.54104422 0 0 Z " fill="#7F994E" transform="translate(48,27)"/>
<path d="M0 0 C3 3 3 3 3.07421875 5.04296875 C2.71614583 7.02864583 2.35807292 9.01432292 2 11 C1.67 11 1.34 11 1 11 C0.67 7.37 0.34 3.74 0 0 Z " fill="#ABC163" transform="translate(21,22)"/>
</svg>
