<?xml version="1.0" encoding="UTF-8"?>
<svg version="1.1" xmlns="http://www.w3.org/2000/svg" width="60" height="66">
<path d="M0 0 C19.8 0 39.6 0 60 0 C60 21.78 60 43.56 60 66 C40.2 66 20.4 66 0 66 C0 44.22 0 22.44 0 0 Z " fill="#FBFCFB" transform="translate(0,0)"/>
<path d="M0 0 C5.6410599 2.52047357 9.29196557 7.01465755 12.6015625 12.09765625 C13.83663436 15.33478523 13.75919175 18.26145137 13.76953125 21.71484375 C13.78628906 23.00132813 13.80304687 24.2878125 13.8203125 25.61328125 C13.09874563 33.01516075 8.84949356 38.35858899 3.39453125 43.15234375 C-2.39560199 46.70113509 -10.03633616 45.8431595 -16.54296875 45.33984375 C-22.54180211 43.85899967 -25.81099217 40.3627047 -29.31640625 35.4375 C-32.96996693 29.18921311 -33.29185606 23.45889595 -32.54296875 16.33984375 C-28.06386724 1.57091444 -14.23492625 -3.6953956 0 0 Z " fill="#35A535" transform="translate(40.54296875,11.66015625)"/>
<path d="M0 0 C1 1 1 1 1.0625 4.0625 C1.041875 5.031875 1.02125 6.00125 1 7 C0.01 7 -0.98 7 -2 7 C-2 7.99 -2 8.98 -2 10 C-1.34 10 -0.68 10 0 10 C0 15.28 0 20.56 0 26 C-0.99 25.67 -1.98 25.34 -3 25 C-3 21.04 -3 17.08 -3 13 C-3.99 13 -4.98 13 -6 13 C-6 16.3 -6 19.6 -6 23 C-7.65 23.33 -9.3 23.66 -11 24 C-11 21.36 -11 18.72 -11 16 C-9.68 15.67 -8.36 15.34 -7 15 C-7 14.34 -7 13.68 -7 13 C-10.24983135 14.08784968 -10.24983135 14.08784968 -13 16 C-13.09909302 18.33160055 -13.12970504 20.66629942 -13.125 23 C-13.12757812 24.27875 -13.13015625 25.5575 -13.1328125 26.875 C-13.35860893 29.86687244 -13.35860893 29.86687244 -12 31 C-11.95936168 32.66617115 -11.957279 34.33388095 -12 36 C-10.02 36.66 -8.04 37.32 -6 38 C-6 38.66 -6 39.32 -6 40 C-0.39 40 5.22 40 11 40 C7.3595671 43.6404329 6.3059598 43.43210167 1.3125 43.4375 C-4.64288684 43.28416872 -9.33731281 42.89280163 -14 39 C-20.27568408 32.25997159 -22.47842988 26.18643302 -22.3203125 17.015625 C-21.76657337 11.80237372 -19.8734938 7.94040429 -16.25 4.1875 C-10.947603 1.38901269 -6.10903155 -0.59600308 0 0 Z " fill="#27A048" transform="translate(30,14)"/>
<path d="M0 0 C3.74649485 1.79888411 6.65739761 4.06709409 9.37890625 7.2421875 C9.04890625 8.2321875 8.71890625 9.2221875 8.37890625 10.2421875 C6.08730306 10.26911234 3.79561079 10.28854874 1.50390625 10.3046875 C0.22773437 10.31628906 -1.0484375 10.32789063 -2.36328125 10.33984375 C-5.62109375 10.2421875 -5.62109375 10.2421875 -7.62109375 9.2421875 C-7.62109375 15.5121875 -7.62109375 21.7821875 -7.62109375 28.2421875 C-8.61109375 28.2421875 -9.60109375 28.2421875 -10.62109375 28.2421875 C-10.62109375 22.9621875 -10.62109375 17.6821875 -10.62109375 12.2421875 C-11.28109375 12.2421875 -11.94109375 12.2421875 -12.62109375 12.2421875 C-12.62109375 11.2521875 -12.62109375 10.2621875 -12.62109375 9.2421875 C-11.63109375 9.2421875 -10.64109375 9.2421875 -9.62109375 9.2421875 C-9.95109375 7.2621875 -10.28109375 5.2821875 -10.62109375 3.2421875 C-16.38392479 2.78722715 -21.22677678 4.45118898 -26.62109375 6.2421875 C-19.2456737 -1.54297811 -10.38381323 -3.00217551 0 0 Z " fill="#7BBC70" transform="translate(40.62109375,11.7578125)"/>
<path d="M0 0 C0.66 0 1.32 0 2 0 C2 1.98 2 3.96 2 6 C2.99 6.33 3.98 6.66 5 7 C5 9.64 5 12.28 5 15 C4.34 15 3.68 15 3 15 C4.35580678 20.67129279 4.35580678 20.67129279 8 25 C8 25.66 8 26.32 8 27 C9.98 27.66 11.96 28.32 14 29 C14 29.66 14 30.32 14 31 C19.61 31 25.22 31 31 31 C27.3595671 34.6404329 26.3059598 34.43210167 21.3125 34.4375 C15.35711316 34.28416872 10.66268719 33.89280163 6 30 C0.70529273 24.31353188 -2.2902243 18.88396231 -2.25 11 C-2.25515625 9.989375 -2.2603125 8.97875 -2.265625 7.9375 C-1.99363426 4.9296024 -1.26321118 2.72693207 0 0 Z " fill="#1C331A" transform="translate(10,23)"/>
<path d="M0 0 C6.93 0.495 6.93 0.495 14 1 C16.13431857 7.00277099 16.45296092 12.64801314 16 19 C15.67 19.66 15.34 20.32 15 21 C12.49609375 21.4140625 12.49609375 21.4140625 9.4375 21.625 C8.42558594 21.69976562 7.41367187 21.77453125 6.37109375 21.8515625 C5.58863281 21.90054688 4.80617188 21.94953125 4 22 C4.33 20.68 4.66 19.36 5 18 C8.465 17.505 8.465 17.505 12 17 C13.14174319 12.38366021 13.14174319 12.38366021 11.9375 8 C9.05932137 6.51448845 7.0547415 7.20311091 4 8 C2.76732652 9.00836062 2.76732652 9.00836062 2.90234375 11.06640625 C2.91394531 11.89011719 2.92554688 12.71382812 2.9375 13.5625 C2.94652344 14.38878906 2.95554688 15.21507812 2.96484375 16.06640625 C2.97644531 16.70449219 2.98804688 17.34257813 3 18 C2.01 17.67 1.02 17.34 0 17 C0 11.39 0 5.78 0 0 Z " fill="#349C4B" transform="translate(33,21)"/>
<path d="M0 0 C0.66 0 1.32 0 2 0 C2 9.24 2 18.48 2 28 C1.67 27.34 1.34 26.68 1 26 C-0.65 26 -2.3 26 -4 26 C-4 26.66 -4 27.32 -4 28 C-5.32 27.67 -6.64 27.34 -8 27 C-7.51144531 26.16597656 -7.02289063 25.33195312 -6.51953125 24.47265625 C-4.78515274 20.50899946 -4.63099976 17.74455642 -4.6875 13.4375 C-4.69136719 12.15746094 -4.69523437 10.87742187 -4.69921875 9.55859375 C-4.97887511 6.24993212 -5.57037039 3.96747819 -7 1 C-5.0625 1.75 -5.0625 1.75 -3 3 C-2.25 5.125 -2.25 5.125 -2 7 C-1.34 4.69 -0.68 2.38 0 0 Z " fill="#F2F4EB" transform="translate(58,20)"/>
<path d="M0 0 C3.26099059 3.97645042 3.40539203 7.40761912 3.375 12.4375 C3.38273437 13.71496094 3.39046875 14.99242187 3.3984375 16.30859375 C2.97629005 20.21966574 2.07489404 22.67815018 0 26 C-2.0625 26.6875 -2.0625 26.6875 -4 27 C-4.66 27.99 -5.32 28.98 -6 30 C-6.99 29.67 -7.98 29.34 -9 29 C-6 24 -6 24 -4.3125 21.875 C-1.41613886 15.53058988 -2.80680277 7.71173444 -4 1 C-6.31 1.33 -8.62 1.66 -11 2 C-7.35713096 -0.33143618 -4.25281824 -0.54126778 0 0 Z " fill="#57A556" transform="translate(51,21)"/>
<path d="M0 0 C2 3 2 3 1.8125 6.5625 C1 10 1 10 -2 12 C-5.625 11.75 -5.625 11.75 -9 11 C-10.54163175 7.9167365 -10.29747535 5.39121901 -10 2 C-7.01983499 -1.66789539 -4.31348256 -1.31279904 0 0 Z " fill="#ACE0B7" transform="translate(45,28)"/>
<path d="M0 0 C0 0.66 0 1.32 0 2 C-0.99 2.33 -1.98 2.66 -3 3 C-3.33 5.64 -3.66 8.28 -4 11 C-2.68 10.67 -1.36 10.34 0 10 C0.33 6.7 0.66 3.4 1 0 C1.99 0 2.98 0 4 0 C4.05380578 2.79192205 4.09357669 5.5828141 4.125 8.375 C4.15013672 9.56609375 4.15013672 9.56609375 4.17578125 10.78125 C4.19335473 12.85492015 4.10335168 14.92883241 4 17 C3.34 17.66 2.68 18.32 2 19 C-0.125 18.625 -0.125 18.625 -2 18 C-1.01 17.67 -0.02 17.34 1 17 C0.67 15.68 0.34 14.36 0 13 C-2.31 12.67 -4.62 12.34 -7 12 C-7.08131463 10.56344146 -7.13933559 9.1255517 -7.1875 7.6875 C-7.22230469 6.88699219 -7.25710938 6.08648437 -7.29296875 5.26171875 C-7 3 -7 3 -5.73828125 1.20703125 C-4 0 -4 0 0 0 Z " fill="#AAD8AF" transform="translate(23,27)"/>
<path d="M0 0 C2.97 0.495 2.97 0.495 6 1 C6 5.62 6 10.24 6 15 C5.01 14.67 4.02 14.34 3 14 C3 10.04 3 6.08 3 2 C2.01 2 1.02 2 0 2 C0 5.3 0 8.6 0 12 C-1.65 12.33 -3.3 12.66 -5 13 C-5 10.36 -5 7.72 -5 5 C-3.68 4.67 -2.36 4.34 -1 4 C-0.67 2.68 -0.34 1.36 0 0 Z " fill="#26713A" transform="translate(24,25)"/>
<path d="M0 0 C2.16796875 1.10546875 2.16796875 1.10546875 5.23046875 3.10546875 C4.24046875 3.60046875 4.24046875 3.60046875 3.23046875 4.10546875 C3.23046875 5.42546875 3.23046875 6.74546875 3.23046875 8.10546875 C-0.09773179 8.33239151 -2.18754461 8.42709294 -5.14453125 6.79296875 C-6.76953125 5.10546875 -6.76953125 5.10546875 -6.76953125 2.10546875 C-7.3728125 2.04488281 -7.97609375 1.98429688 -8.59765625 1.921875 C-9.79648437 1.79619141 -9.79648437 1.79619141 -11.01953125 1.66796875 C-12.20289063 1.54615234 -12.20289063 1.54615234 -13.41015625 1.421875 C-15.59317764 1.12911882 -17.64684945 0.68482456 -19.76953125 0.10546875 C-14.59948813 -2.47955281 -5.42158688 -1.75111903 0 0 Z " fill="#8DBD6E" transform="translate(40.76953125,11.89453125)"/>
<path d="M0 0 C0.66 0.33 1.32 0.66 2 1 C2.33 1.99 2.66 2.98 3 4 C6.00847418 5.22520264 6.00847418 5.22520264 9 6 C9 6.33 9 6.66 9 7 C6.69 6.67 4.38 6.34 2 6 C2 12.27 2 18.54 2 25 C1.01 25 0.02 25 -1 25 C-1 19.72 -1 14.44 -1 9 C-1.66 9 -2.32 9 -3 9 C-3 8.01 -3 7.02 -3 6 C-2.01 6 -1.02 6 0 6 C0 4.02 0 2.04 0 0 Z " fill="#57B06C" transform="translate(31,15)"/>
<path d="M0 0 C0.66 0 1.32 0 2 0 C2 1.98 2 3.96 2 6 C2.99 6.33 3.98 6.66 5 7 C5 9.64 5 12.28 5 15 C4.34 15 3.68 15 3 15 C3 15.99 3 16.98 3 18 C2.34 18 1.68 18 1 18 C0.67 17.01 0.34 16.02 0 15 C-0.66 15.66 -1.32 16.32 -2 17 C-2.05441656 15.10448978 -2.09298035 13.2085208 -2.125 11.3125 C-2.14820313 10.25675781 -2.17140625 9.20101562 -2.1953125 8.11328125 C-1.99858729 4.97748141 -1.33057654 2.82354627 0 0 Z " fill="#1F4326" transform="translate(10,23)"/>
<path d="M0 0 C0.66 0 1.32 0 2 0 C0.5682479 5.01113235 -1.98445693 6.94469549 -6 10 C-6.66 9.67 -7.32 9.34 -8 9 C-11.44127621 8.76862284 -14.87577869 8.60455322 -18.32226562 8.48242188 C-20.21946625 8.39109432 -22.11146711 8.20286566 -24 8 C-24.33 7.34 -24.66 6.68 -25 6 C-26.64363134 5.27840576 -28.31050386 4.60648579 -30 4 C-29.67 3.34 -29.34 2.68 -29 2 C-28.46632813 2.28875 -27.93265625 2.5775 -27.3828125 2.875 C-21.48181225 5.81529078 -16.57174035 6.81572302 -10 6 C-7.13326836 5.03973184 -7.13326836 5.03973184 -5 4 C-4.34 4.33 -3.68 4.66 -3 5 C-2.690625 4.360625 -2.38125 3.72125 -2.0625 3.0625 C-1 1 -1 1 0 0 Z " fill="#367035" transform="translate(48,46)"/>
<path d="M0 0 C2.31 0 4.62 0 7 0 C7 1.65 7 3.3 7 5 C6.01 5.495 6.01 5.495 5 6 C6.65 5.67 8.3 5.34 10 5 C10.33 6.32 10.66 7.64 11 9 C9.68 9 8.36 9 7 9 C7 9.66 7 10.32 7 11 C5.02 10.34 3.04 9.68 1 9 C1 8.01 1 7.02 1 6 C0.34 5.67 -0.32 5.34 -1 5 C-0.67 3.35 -0.34 1.7 0 0 Z " fill="#419F48" transform="translate(17,39)"/>
<path d="M0 0 C1.32 0 2.64 0 4 0 C4.0816082 2.37570543 4.14077222 4.74855841 4.1875 7.125 C4.21263672 7.79015625 4.23777344 8.4553125 4.26367188 9.140625 C4.33320714 13.86902292 3.40278375 16.95121479 1 21 C0.01 20.34 -0.98 19.68 -2 19 C-1.67257813 18.49984375 -1.34515625 17.9996875 -1.0078125 17.484375 C0.3723642 14.08207896 0.21362838 10.85649349 0.125 7.25 C0.11146484 6.20392578 0.11146484 6.20392578 0.09765625 5.13671875 C0.07419888 3.42433042 0.03833104 1.71211996 0 0 Z " fill="#578F46" transform="translate(50,26)"/>
<path d="M0 0 C0.66 0 1.32 0 2 0 C2 0.66 2 1.32 2 2 C3.175625 2.185625 3.175625 2.185625 4.375 2.375 C7 3 7 3 9 5 C8.01 5 7.02 5 6 5 C6 5.66 6 6.32 6 7 C5.01 7.66 4.02 8.32 3 9 C2.63637182 11.20725073 2.63637182 11.20725073 2.8125 13.625 C2.85310547 14.85089844 2.85310547 14.85089844 2.89453125 16.1015625 C2.92933594 16.72804688 2.96414062 17.35453125 3 18 C2.01 17.67 1.02 17.34 0 17 C0 11.39 0 5.78 0 0 Z " fill="#23A045" transform="translate(33,21)"/>
<path d="M0 0 C-0.33 1.32 -0.66 2.64 -1 4 C-0.34 4.33 0.32 4.66 1 5 C-0.794375 4.5359375 -0.794375 4.5359375 -2.625 4.0625 C-4.81522572 3.66677147 -4.81522572 3.66677147 -7 4 C-9.50140818 5.99903332 -11.24615235 8.33601171 -13 11 C-13.99 10.67 -14.98 10.34 -16 10 C-14.64844718 5.57673622 -12.80109562 3.59587018 -9 1 C-5.8035914 -0.06546953 -3.34252724 -0.07427838 0 0 Z " fill="#13A435" transform="translate(29,16)"/>
<path d="M0 0 C1 1 1 1 1.0625 4.0625 C1.041875 5.031875 1.02125 6.00125 1 7 C0.01 6.67 -0.98 6.34 -2 6 C-1.67 4.68 -1.34 3.36 -1 2 C-7.56985279 2.97817808 -11.0964931 4.56349376 -16 9 C-16.99 9 -17.98 9 -19 9 C-17.99284277 6.38905436 -17.35522481 5.20876085 -14.90625 3.76953125 C-14.1121875 3.45371094 -13.318125 3.13789063 -12.5 2.8125 C-11.30890625 2.32716797 -11.30890625 2.32716797 -10.09375 1.83203125 C-9.4028125 1.55746094 -8.711875 1.28289063 -8 1 C-5.26752652 -0.36623674 -3.01801098 -0.128426 0 0 Z " fill="#39A13F" transform="translate(30,14)"/>
<path d="M0 0 C6.27 0.33 12.54 0.66 19 1 C16 4 16 4 12.64453125 4.29296875 C11.37996094 4.25816406 10.11539063 4.22335938 8.8125 4.1875 C7.54019531 4.16042969 6.26789062 4.13335937 4.95703125 4.10546875 C3.98121094 4.07066406 3.00539063 4.03585938 2 4 C1.34 2.68 0.68 1.36 0 0 Z " fill="#0A1F08" transform="translate(22,53)"/>
<path d="M0 0 C2.5 0.125 2.5 0.125 3.5 1.125 C3.6875 3.5625 3.6875 3.5625 3.5 6.125 C2.84 6.785 2.18 7.445 1.5 8.125 C-2.03571429 7.58928571 -2.03571429 7.58928571 -3.5 6.125 C-3.625 3.625 -3.625 3.625 -3.5 1.125 C-2.5 0.125 -2.5 0.125 0 0 Z " fill="#336C42" transform="translate(40.5,29.875)"/>
<path d="M0 0 C2.33760758 3.71267087 1.9611085 4.19445748 1 9 C-2.63 9.33 -6.26 9.66 -10 10 C-9.67 8.68 -9.34 7.36 -9 6 C-5.535 5.505 -5.535 5.505 -2 5 C-1.34 3.35 -0.68 1.7 0 0 Z " fill="#3D8B42" transform="translate(47,33)"/>
<path d="M0 0 C1.32 0 2.64 0 4 0 C4 5.94 4 11.88 4 18 C3.34 18 2.68 18 2 18 C2 12.72 2 7.44 2 2 C1.34 2 0.68 2 0 2 C0 1.34 0 0.68 0 0 Z " fill="#DDFCE5" transform="translate(28,22)"/>
<path d="M0 0 C1.32 0.33 2.64 0.66 4 1 C4 3.64 4 6.28 4 9 C3.34 9 2.68 9 2 9 C2 9.99 2 10.98 2 12 C1.34 12 0.68 12 0 12 C0 8.04 0 4.08 0 0 Z " fill="#257931" transform="translate(11,29)"/>
<path d="M0 0 C5.75 0.875 5.75 0.875 8 2 C8 3.32 8 4.64 8 6 C5.125 6.125 5.125 6.125 2 6 C1.34 5.34 0.68 4.68 0 4 C0 2.68 0 1.36 0 0 Z " fill="#A9D2A3" transform="translate(36,14)"/>
<path d="M0 0 C1.36125 0.12375 1.36125 0.12375 2.75 0.25 C3.41 1.24 4.07 2.23 4.75 3.25 C3.47125 3.188125 2.1925 3.12625 0.875 3.0625 C-4.52423811 3.03674847 -9.19238735 4.47614003 -14.25 6.25 C-11.72234574 3.35063188 -10.07198572 1.47735775 -6.3125 0.4375 C-4.20722781 0.30860578 -2.10300152 0.16176935 0 0 Z " fill="#72B756" transform="translate(28.25,11.75)"/>
<path d="M0 0 C1.32 0.33 2.64 0.66 4 1 C4 2.32 4 3.64 4 5 C-0.455 5.495 -0.455 5.495 -5 6 C-5 4.68 -5 3.36 -5 2 C-3.35 2 -1.7 2 0 2 C0 1.34 0 0.68 0 0 Z " fill="#1DA033" transform="translate(33,38)"/>
<path d="M0 0 C-0.99766109 2.49415272 -1.68616685 3.78740335 -3.9375 5.3125 C-6 6 -6 6 -9 5 C-8.67 3.35 -8.34 1.7 -8 0 C-4.94736336 -0.98120464 -3.05263664 -0.98120464 0 0 Z " fill="#2A9E2D" transform="translate(47,42)"/>
<path d="M0 0 C0 0.66 0 1.32 0 2 C-1.65 2.66 -3.3 3.32 -5 4 C-5.34900558 7.71736641 -5.34900558 7.71736641 -3.5 10.8125 C-3.005 11.204375 -2.51 11.59625 -2 12 C-3.65 12 -5.3 12 -7 12 C-8.54163175 8.9167365 -8.29747535 6.39121901 -8 3 C-5.25765504 -0.03616763 -4.20797179 0 0 0 Z " fill="#B9F0C4" transform="translate(43,27)"/>
<path d="M0 0 C0.66 1.65 1.32 3.3 2 5 C1.01 5 0.02 5 -1 5 C-1 5.66 -1 6.32 -1 7 C-1.66 7 -2.32 7 -3 7 C-3.33 5.02 -3.66 3.04 -4 1 C-6.31 1.33 -8.62 1.66 -11 2 C-7.36576791 -0.32590854 -4.22911669 -0.16265833 0 0 Z " fill="#64B055" transform="translate(51,21)"/>
<path d="M0 0 C2.21435076 3.32152614 2.09285903 4.19277961 2 8 C2.29044914 9.34332728 2.60955794 10.68225804 3 12 C-1.92307692 7.69230769 -1.92307692 7.69230769 -2.3125 4.1875 C-2.209375 3.465625 -2.10625 2.74375 -2 2 C-1.34 2 -0.68 2 0 2 C0 1.34 0 0.68 0 0 Z " fill="#2F9333" transform="translate(15,36)"/>
<path d="M0 0 C0.78375 0.185625 1.5675 0.37125 2.375 0.5625 C4.97089775 1.25962266 4.97089775 1.25962266 7 0 C7.33 1.32 7.66 2.64 8 4 C6.68 4 5.36 4 4 4 C4 4.66 4 5.32 4 6 C2.35 5.67 0.7 5.34 -1 5 C-0.67 3.35 -0.34 1.7 0 0 Z " fill="#48A950" transform="translate(20,44)"/>
<path d="M0 0 C0 4.62 0 9.24 0 14 C-0.99 13.67 -1.98 13.34 -3 13 C-3 9.04 -3 5.08 -3 1 C-1 0 -1 0 0 0 Z " fill="#327742" transform="translate(30,26)"/>
<path d="M0 0 C3.63 0 7.26 0 11 0 C11 0.66 11 1.32 11 2 C11.66 2 12.32 2 13 2 C13 2.66 13 3.32 13 4 C8.38 3.34 3.76 2.68 -1 2 C-0.67 1.34 -0.34 0.68 0 0 Z " fill="#E4F5D0" transform="translate(29,9)"/>
<path d="M0 0 C0.33 0 0.66 0 1 0 C1 5.61 1 11.22 1 17 C-0.65 17.33 -2.3 17.66 -4 18 C-3.51917969 17.66355469 -3.03835937 17.32710937 -2.54296875 16.98046875 C-0.24390033 14.02951258 -0.43016048 10.91291058 -0.3125 7.3125 C-0.27833984 6.61060547 -0.24417969 5.90871094 -0.20898438 5.18554688 C-0.12670053 3.45758613 -0.0616676 1.72881928 0 0 Z " fill="#D0F9CE" transform="translate(25,28)"/>
<path d="M0 0 C7.57142857 1.85714286 7.57142857 1.85714286 10 5 C6.62294375 4.46274105 3.303314 3.88935377 0 3 C-0.33 3.99 -0.66 4.98 -1 6 C-0.67 4.02 -0.34 2.04 0 0 Z " fill="#A2C38B" transform="translate(36,11)"/>
<path d="M0 0 C0.99 0 1.98 0 3 0 C3 3.63 3 7.26 3 11 C2.01 10.67 1.02 10.34 0 10 C0 6.7 0 3.4 0 0 Z " fill="#347042" transform="translate(33,28)"/>
<path d="M0 0 C0.99 0 1.98 0 3 0 C3 3.96 3 7.92 3 12 C0.97649676 8.96474514 0.67875982 7.80573798 0.375 4.3125 C0.30023438 3.50425781 0.22546875 2.69601563 0.1484375 1.86328125 C0.09945312 1.24839844 0.05046875 0.63351563 0 0 Z " fill="#50852F" transform="translate(50,26)"/>
<path d="M0 0 C1.98 0.99 1.98 0.99 4 2 C4 6.95 4 11.9 4 17 C3.67 17 3.34 17 3 17 C2.92652344 15.78763672 2.92652344 15.78763672 2.8515625 14.55078125 C2.73941406 12.94783203 2.73941406 12.94783203 2.625 11.3125 C2.55539063 10.25675781 2.48578125 9.20101563 2.4140625 8.11328125 C2.01239911 5.09322731 1.25930981 2.75921946 0 0 Z " fill="#D9EFCD" transform="translate(51,21)"/>
<path d="M0 0 C4.95 0 9.9 0 15 0 C13.515 1.485 13.515 1.485 12 3 C11.34 3 10.68 3 10 3 C10 2.34 10 1.68 10 1 C6.7 1 3.4 1 0 1 C0 0.67 0 0.34 0 0 Z " fill="#184315" transform="translate(26,54)"/>
<path d="M0 0 C2.64 0 5.28 0 8 0 C7.67 0.66 7.34 1.32 7 2 C4.93359375 2.6328125 4.93359375 2.6328125 2.4375 3.125 C1.19806641 3.37636719 1.19806641 3.37636719 -0.06640625 3.6328125 C-0.70449219 3.75398437 -1.34257812 3.87515625 -2 4 C-2 3.34 -2 2.68 -2 2 C-1.34 2 -0.68 2 0 2 C0 1.34 0 0.68 0 0 Z " fill="#F0FDE8" transform="translate(21,9)"/>
<path d="M0 0 C0.66 0.33 1.32 0.66 2 1 C2 1.66 2 2.32 2 3 C2.66 3.66 3.32 4.32 4 5 C3.67 5.66 3.34 6.32 3 7 C1.68 6.67 0.36 6.34 -1 6 C-0.67 4.02 -0.34 2.04 0 0 Z " fill="#1F8F3C" transform="translate(12,23)"/>
<path d="M0 0 C1.98 0.99 1.98 0.99 4 2 C3.01 3.485 3.01 3.485 2 5 C1.60612212 7.32387947 1.26513915 9.65793749 1 12 C0.67 12 0.34 12 0 12 C0 8.04 0 4.08 0 0 Z " fill="#19662D" transform="translate(11,29)"/>
<path d="M0 0 C1.48199902 0.44909061 2.96055236 0.90956564 4.4375 1.375 C5.26121094 1.63023438 6.08492187 1.88546875 6.93359375 2.1484375 C9 3 9 3 10 5 C6.44219804 4.39009109 3.3171411 3.4216319 0 2 C0 1.34 0 0.68 0 0 Z " fill="#348335" transform="translate(18,48)"/>
<path d="M0 0 C1.98 0.495 1.98 0.495 4 1 C4 2.32 4 3.64 4 5 C2.0625 4.625 2.0625 4.625 0 4 C-0.33 3.34 -0.66 2.68 -1 2 C-0.67 1.34 -0.34 0.68 0 0 Z " fill="#218C2E" transform="translate(33,38)"/>
<path d="M0 0 C2.53731364 1.26865682 2.78646846 2.49709121 4 5 C4.66 5.66 5.32 6.32 6 7 C4.35 7 2.7 7 1 7 C0.67 4.69 0.34 2.38 0 0 Z " fill="#CCF3D0" transform="translate(35,32)"/>
<path d="M0 0 C1.65 0 3.3 0 5 0 C5.33 1.32 5.66 2.64 6 4 C4.68 4 3.36 4 2 4 C1.34 2.68 0.68 1.36 0 0 Z " fill="#D4F0CF" transform="translate(37,15)"/>
<path d="M0 0 C0.2475 0.5775 0.495 1.155 0.75 1.75 C2.16683317 4.3002997 3.87627537 6.01785701 6 8 C3.03 7.505 3.03 7.505 0 7 C0 4.69 0 2.38 0 0 Z " fill="#D6F5D3" transform="translate(16,32)"/>
</svg>
