<?xml version="1.0" encoding="UTF-8"?>
<svg version="1.1" xmlns="http://www.w3.org/2000/svg" width="61" height="62">
<path d="M0 0 C20.13 0 40.26 0 61 0 C61 20.46 61 40.92 61 62 C40.87 62 20.74 62 0 62 C0 41.54 0 21.08 0 0 Z " fill="#F5C403" transform="translate(0,0)"/>
<path d="M0 0 C2.27758526 2.90588464 2.55100075 4.78307741 2.28125 8.41796875 C1.8125 10.3125 1.8125 10.3125 -0.0625 12.625 C-9.70397181 17.83139477 -20.02595846 18.92880841 -30.625 16.0625 C-34.46453802 14.72082568 -37.56659191 13.54495331 -40.1875 10.3125 C-41.02209297 7.43375903 -41.08296324 5.18140451 -40.1875 2.3125 C-30.71841746 -8.76715963 -11.4526998 -6.06319401 0 0 Z " fill="#E3C130" transform="translate(49.1875,23.6875)"/>
<path d="M0 0 C2.27758526 2.90588464 2.55100075 4.78307741 2.28125 8.41796875 C1.8125 10.3125 1.8125 10.3125 -0.0625 12.625 C-9.70397181 17.83139477 -20.02595846 18.92880841 -30.625 16.0625 C-34.46453802 14.72082568 -37.56659191 13.54495331 -40.1875 10.3125 C-41.02209297 7.43375903 -41.08296324 5.18140451 -40.1875 2.3125 C-30.71841746 -8.76715963 -11.4526998 -6.06319401 0 0 Z M-36.1875 1.3125 C-37.38514445 3.37293535 -37.38514445 3.37293535 -38.1875 5.3125 C-35.8775 3.9925 -33.5675 2.6725 -31.1875 1.3125 C-31.1875 3.6225 -31.1875 5.9325 -31.1875 8.3125 C-30.8575 8.3125 -30.5275 8.3125 -30.1875 8.3125 C-30.1875 6.3325 -30.1875 4.3525 -30.1875 2.3125 C-29.5275 2.3125 -28.8675 2.3125 -28.1875 2.3125 C-27.8575 3.3025 -27.5275 4.2925 -27.1875 5.3125 C-26.5275 5.3125 -25.8675 5.3125 -25.1875 5.3125 C-24.8575 4.6525 -24.5275 3.9925 -24.1875 3.3125 C-22.41742286 3.23135894 -20.64627902 3.17324495 -18.875 3.125 C-17.88886719 3.09019531 -16.90273438 3.05539063 -15.88671875 3.01953125 C-13.1875 3.3125 -13.1875 3.3125 -11.33203125 4.82421875 C-10.95433594 5.31535156 -10.57664062 5.80648438 -10.1875 6.3125 C-10.1875 4.9925 -10.1875 3.6725 -10.1875 2.3125 C-9.5275 2.3125 -8.8675 2.3125 -8.1875 2.3125 C-8.1875 4.9525 -8.1875 7.5925 -8.1875 10.3125 C-9.8375 8.9925 -11.4875 7.6725 -13.1875 6.3125 C-13.1875 7.6325 -13.1875 8.9525 -13.1875 10.3125 C-13.8475 10.3125 -14.5075 10.3125 -15.1875 10.3125 C-15.1875 8.3325 -15.1875 6.3525 -15.1875 4.3125 C-17.4975 4.3125 -19.8075 4.3125 -22.1875 4.3125 C-22.1875 6.2925 -22.1875 8.2725 -22.1875 10.3125 C-22.8475 10.3125 -23.5075 10.3125 -24.1875 10.3125 C-24.5175 8.9925 -24.8475 7.6725 -25.1875 6.3125 C-26.1775 6.3125 -27.1675 6.3125 -28.1875 6.3125 C-28.1875 7.9625 -28.1875 9.6125 -28.1875 11.3125 C-28.8475 11.3125 -29.5075 11.3125 -30.1875 11.3125 C-30.1875 11.9725 -30.1875 12.6325 -30.1875 13.3125 C-29.135625 13.1475 -28.08375 12.9825 -27 12.8125 C-23.98281204 12.41680322 -21.21656028 12.22071029 -18.1875 12.3125 C-20.23448414 14.35948414 -24.49161241 14.01295693 -27.1875 14.3125 C-27.1875 14.6425 -27.1875 14.9725 -27.1875 15.3125 C-12.79334363 16.38569876 -12.79334363 16.38569876 -0.1875 10.3125 C1.631093 7.41052862 1.631093 7.41052862 0.8125 4.3125 C-3.97216485 -0.95063134 -8.99060008 -2.4122914 -16.08984375 -3.0234375 C-17.43463347 -3.05302222 -18.77988876 -3.06572337 -20.125 -3.0625 C-21.1761499 -3.06008301 -21.1761499 -3.06008301 -22.24853516 -3.05761719 C-27.98928991 -2.92140947 -31.54962514 -2.0267699 -36.1875 1.3125 Z " fill="#EAC318" transform="translate(49.1875,23.6875)"/>
<path d="M0 0 C2.31 0 4.62 0 7 0 C7 20.46 7 40.92 7 62 C-13.13 62 -33.26 62 -54 62 C-54 59.69 -54 57.38 -54 55 C-52.87150635 55.97114746 -52.87150635 55.97114746 -51.72021484 56.96191406 C-47.0360054 60.06262047 -41.91763211 59.60308445 -36.4765625 59.609375 C-35.37524994 59.62591125 -34.27393738 59.64244751 -33.13925171 59.65948486 C-29.63444418 59.70792653 -26.13007048 59.72932821 -22.625 59.75 C-20.2434678 59.77816274 -17.86195578 59.80809059 -15.48046875 59.83984375 C-9.65372448 59.91368456 -3.82710204 59.96534962 2 60 C2.66 58.68 3.32 57.36 4 56 C4.66 56 5.32 56 6 56 C5.98373825 48.66715961 5.92900126 41.33533239 5.84741211 34.00292969 C5.82420461 31.50820485 5.80982999 29.01338165 5.80444336 26.51855469 C5.79517443 22.93361923 5.75422532 19.35023683 5.70703125 15.765625 C5.7109639 14.64883362 5.71489655 13.53204224 5.71894836 12.38140869 C5.75634079 6.2145311 5.75634079 6.2145311 2.45581055 1.26464844 C1.64539307 0.84731445 0.83497559 0.42998047 0 0 Z " fill="#F6EDC4" transform="translate(54,0)"/>
<path d="M0 0 C2.27758526 2.90588464 2.55100075 4.78307741 2.28125 8.41796875 C1.8125 10.3125 1.8125 10.3125 -0.0625 12.625 C-9.70397181 17.83139477 -20.02595846 18.92880841 -30.625 16.0625 C-34.46453802 14.72082568 -37.56659191 13.54495331 -40.1875 10.3125 C-41.02209297 7.43375903 -41.08296324 5.18140451 -40.1875 2.3125 C-30.71841746 -8.76715963 -11.4526998 -6.06319401 0 0 Z M-39.1875 4.3125 C-39.33518913 6.82999828 -39.33518913 6.82999828 -38.1875 9.3125 C-32.70990712 14.79009288 -26.43406507 15.72820766 -18.9375 15.75 C-11.92892719 15.74546077 -5.70655039 15.1040392 -0.1875 10.3125 C1.631093 7.41052862 1.631093 7.41052862 0.8125 4.3125 C-3.97216485 -0.95063134 -8.99060008 -2.4122914 -16.08984375 -3.0234375 C-17.434637 -3.05286153 -18.77988838 -3.06556183 -20.125 -3.0625 C-21.17723755 -3.06117065 -21.17723755 -3.06117065 -22.25073242 -3.05981445 C-29.24566968 -2.89967469 -34.52537751 -1.11964272 -39.1875 4.3125 Z " fill="#4A2A00" transform="translate(49.1875,23.6875)"/>
<path d="M0 0 C0.33 0 0.66 0 1 0 C1 2.64 1 5.28 1 8 C1.66 8 2.32 8 3 8 C3.33 7.34 3.66 6.68 4 6 C4 6.66 4 7.32 4 8 C4.66 8.33 5.32 8.66 6 9 C-1.83687063 14.33574171 -9.89555825 13.37245444 -19 13 C-19 12.67 -19 12.34 -19 12 C-16.94921875 11.77213542 -14.8984375 11.54427083 -12.84765625 11.31640625 C-10.98859771 11.18113386 -10.98859771 11.18113386 -10 10 C-14.16138263 9.91840426 -17.9472484 10.01751476 -22 11 C-22 10.34 -22 9.68 -22 9 C-21.34 9 -20.68 9 -20 9 C-20 7.35 -20 5.7 -20 4 C-18.68 4 -17.36 4 -16 4 C-16 5.32 -16 6.64 -16 8 C-15.34 8 -14.68 8 -14 8 C-14 6.02 -14 4.04 -14 2 C-11.69 2 -9.38 2 -7 2 C-7 3.98 -7 5.96 -7 8 C-6.34 8 -5.68 8 -5 8 C-4.67 6.68 -4.34 5.36 -4 4 C-2.68 5.32 -1.36 6.64 0 8 C0 5.36 0 2.72 0 0 Z " fill="#DFBA14" transform="translate(41,26)"/>
<path d="M0 0 C4.875 1.875 4.875 1.875 6 3 C6.11424043 4.60485002 6.1595883 6.21466962 6.17700195 7.82348633 C6.19625481 9.36562553 6.19625481 9.36562553 6.21589661 10.93891907 C6.22328354 12.05864609 6.23067047 13.17837311 6.23828125 14.33203125 C6.246353 15.47532394 6.25442474 16.61861664 6.26274109 17.79655457 C6.27660173 20.22185744 6.28731498 22.64717999 6.29516602 25.07250977 C6.31237878 28.78634538 6.35624863 32.4992912 6.40039062 36.21289062 C6.41051688 38.5650976 6.41903319 40.91731216 6.42578125 43.26953125 C6.44328934 44.38318558 6.46079742 45.4968399 6.47883606 46.64424133 C6.47591049 47.68179062 6.47298492 48.7193399 6.4699707 49.78833008 C6.47583694 50.70020584 6.48170319 51.6120816 6.48774719 52.55158997 C5.83181297 55.84427102 4.67134313 57.01022767 2 59 C-0.37921143 59.48101807 -0.37921143 59.48101807 -3.04394531 59.45410156 C-4.04468079 59.45379944 -5.04541626 59.45349731 -6.07647705 59.45318604 C-7.14952087 59.43254089 -8.2225647 59.41189575 -9.328125 59.390625 C-10.43226746 59.38496521 -11.53640991 59.37930542 -12.67401123 59.37347412 C-16.19978226 59.35108768 -19.72453624 59.30088496 -23.25 59.25 C-25.64061032 59.22993803 -28.03123658 59.21168674 -30.421875 59.1953125 C-36.28159687 59.15121543 -42.14072578 59.08427998 -48 59 C-48 58.67 -48 58.34 -48 58 C-32.16 57.67 -16.32 57.34 0 57 C0.33 56.01 0.66 55.02 1 54 C1.99 53.67 2.98 53.34 4 53 C4.33 37.16 4.66 21.32 5 5 C3.68 4.34 2.36 3.68 1 3 C0.505 1.515 0.505 1.515 0 0 Z " fill="#E9C63C" transform="translate(54,1)"/>
<path d="M0 0 C8.94491465 -1.48596302 20.15821354 0.33057261 28 5 C28.33 5.66 28.66 6.32 29 7 C30.65 7 32.3 7 34 7 C33.67 8.65 33.34 10.3 33 12 C32.34 12 31.68 12 31 12 C31.1546875 13.36125 31.1546875 13.36125 31.3125 14.75 C31 18 31 18 28.75 20.4375 C26 22 26 22 23.6875 21.75 C23.130625 21.5025 22.57375 21.255 22 21 C22.99 20.505 23.98 20.01 25 19.5 C28.05805766 17.40641666 28.05805766 17.40641666 28.609375 15.09375 C28.76063124 12.84171257 28.65397594 11.16212455 28 9 C21.73681088 2.89740548 13.21251095 2.84777637 4.9375 2.875 C2.62484377 2.90683598 0.31222521 2.94516462 -2 3 C-1.34 2.01 -0.68 1.02 0 0 Z " fill="#E0BC1D" transform="translate(22,17)"/>
<path d="M0 0 C2 0 2 0 3.625 1.5 C4.07875 1.995 4.5325 2.49 5 3 C5.33 2.01 5.66 1.02 6 0 C7.79093191 -0.08086147 9.58289628 -0.13912702 11.375 -0.1875 C12.87160156 -0.23970703 12.87160156 -0.23970703 14.3984375 -0.29296875 C15.25695313 -0.19628906 16.11546875 -0.09960938 17 0 C17.66 0.99 18.32 1.98 19 3 C19.33 2.01 19.66 1.02 20 0 C20.66 0 21.32 0 22 0 C22 2.64 22 5.28 22 8 C21.01 7.67 20.02 7.34 19 7 C18.67 6.34 18.34 5.68 18 5 C17.67 5.99 17.34 6.98 17 8 C16.34 8 15.68 8 15 8 C15 6.02 15 4.04 15 2 C14.01 2 13.02 2 12 2 C12 3.65 12 5.3 12 7 C11.67 7 11.34 7 11 7 C11 5.35 11 3.7 11 2 C10.01 2 9.02 2 8 2 C8 3.98 8 5.96 8 8 C7.34 8 6.68 8 6 8 C5.67 7.01 5.34 6.02 5 5 C4.34 5 3.68 5 3 5 C2.67 5.99 2.34 6.98 2 8 C1.34 8 0.68 8 0 8 C0 5.36 0 2.72 0 0 Z " fill="#715608" transform="translate(19,26)"/>
<path d="M0 0 C1.485 0.99 1.485 0.99 3 2 C3 2.66 3 3.32 3 4 C10.6358175 3.93312941 18.27111775 3.84337425 25.90649414 3.73754883 C28.50506443 3.70425257 31.10370787 3.67623546 33.70239258 3.65356445 C37.43342319 3.62010549 41.16378061 3.56779271 44.89453125 3.51171875 C46.06023148 3.50532883 47.2259317 3.4989389 48.42695618 3.49235535 C50.0482972 3.46266411 50.0482972 3.46266411 51.70239258 3.43237305 C52.65503494 3.42126999 53.60767731 3.41016693 54.58918762 3.39872742 C57.39807067 2.93416257 58.21064464 2.14039282 60 0 C60.33 0 60.66 0 61 0 C61 1.65 61 3.3 61 5 C40.87 5 20.74 5 0 5 C0 3.35 0 1.7 0 0 Z " fill="#E3F3FE" transform="translate(0,57)"/>
<path d="M0 0 C2.375 1.625 2.375 1.625 4 4 C3.75 7.25 3.75 7.25 3 10 C0.69 10 -1.62 10 -4 10 C-4 7.36 -4 4.72 -4 2 C-4.99 1.67 -5.98 1.34 -7 1 C-4.4086487 -0.29567565 -2.87704151 -0.34250494 0 0 Z " fill="#F4C507" transform="translate(46,24)"/>
<path d="M0 0 C0.33 0 0.66 0 1 0 C1 2.64 1 5.28 1 8 C1.66 8 2.32 8 3 8 C3.33 7.34 3.66 6.68 4 6 C4 6.66 4 7.32 4 8 C4.66 8.33 5.32 8.66 6 9 C-1.83687063 14.33574171 -9.89555825 13.37245444 -19 13 C-19 12.67 -19 12.34 -19 12 C-18.08476562 11.93941406 -17.16953125 11.87882812 -16.2265625 11.81640625 C-14.44378906 11.69072266 -14.44378906 11.69072266 -12.625 11.5625 C-10.84996094 11.44068359 -10.84996094 11.44068359 -9.0390625 11.31640625 C-6.08481099 11.18915064 -6.08481099 11.18915064 -4 10 C-4.33 8.02 -4.66 6.04 -5 4 C-2.525 5.98 -2.525 5.98 0 8 C0 5.36 0 2.72 0 0 Z " fill="#DDBC2E" transform="translate(41,26)"/>
<path d="M0 0 C-1.98 0.99 -1.98 0.99 -4 2 C-4 2.66 -4 3.32 -4 4 C-3.01 4.33 -2.02 4.66 -1 5 C-1.33 5.66 -1.66 6.32 -2 7 C-2.99 6.67 -3.98 6.34 -5 6 C-5 5.34 -5 4.68 -5 4 C-5.66 4 -6.32 4 -7 4 C-7 5.98 -7 7.96 -7 10 C-7.33 10 -7.66 10 -8 10 C-8 7.69 -8 5.38 -8 3 C-9.175625 3.7115625 -9.175625 3.7115625 -10.375 4.4375 C-11.88948678 5.33898023 -13.4235897 6.21179485 -15 7 C-13.25194156 2.74190892 -11.08731096 1.57684684 -7.04296875 -0.31640625 C-4.39527328 -1.20234642 -2.59641016 -0.97365381 0 0 Z " fill="#DCBA26" transform="translate(26,22)"/>
<path d="M0 0 C5.28 0 10.56 0 16 0 C16.33 0.99 16.66 1.98 17 3 C11.72 3 6.44 3 1 3 C0.67 2.01 0.34 1.02 0 0 Z " fill="#F2C50C" transform="translate(21,23)"/>
<path d="M0 0 C0.66 0 1.32 0 2 0 C2.33 2.31 2.66 4.62 3 7 C-0.87684087 8.19287411 -3.91621923 9 -8 9 C-8 8.34 -8 7.68 -8 7 C-7.34 7 -6.68 7 -6 7 C-6 5.35 -6 3.7 -6 2 C-4.68 2 -3.36 2 -2 2 C-2 3.32 -2 4.64 -2 6 C-1.34 6 -0.68 6 0 6 C0 4.02 0 2.04 0 0 Z " fill="#E3C024" transform="translate(27,28)"/>
<path d="M0 0 C0.99 0 1.98 0 3 0 C3 3.3 3 6.6 3 10 C2.01 10 1.02 10 0 10 C0 9.01 0 8.02 0 7 C-0.99 7 -1.98 7 -3 7 C-2.25 2.25 -2.25 2.25 0 0 Z " fill="#F1C604" transform="translate(15,25)"/>
<path d="M0 0 C1.50433594 0.29197266 1.50433594 0.29197266 3.0390625 0.58984375 C4.19535156 0.82380859 4.19535156 0.82380859 5.375 1.0625 C2.11647635 3.2348491 -1.21744728 5.13369658 -4.625 7.0625 C-4.625 6.0725 -4.625 5.0825 -4.625 4.0625 C-5.615 4.0625 -6.605 4.0625 -7.625 4.0625 C-7.625 2.7425 -7.625 1.4225 -7.625 0.0625 C-4.81015955 -1.34492022 -3.05563887 -0.60402164 0 0 Z " fill="#F4C311" transform="translate(13.625,18.9375)"/>
<path d="M0 0 C2.31 0 4.62 0 7 0 C6.67 1.65 6.34 3.3 6 5 C4.02 5.66 2.04 6.32 0 7 C0 4.69 0 2.38 0 0 Z " fill="#F0C621" transform="translate(0,0)"/>
<path d="M0 0 C2 0 2 0 3.625 1.5 C4.07875 1.995 4.5325 2.49 5 3 C5 2.34 5 1.68 5 1 C5.66 1 6.32 1 7 1 C7 2.98 7 4.96 7 7 C5.68 6.34 4.36 5.68 3 5 C2.67 5.99 2.34 6.98 2 8 C1.34 8 0.68 8 0 8 C0 5.36 0 2.72 0 0 Z " fill="#381F00" transform="translate(19,26)"/>
<path d="M0 0 C0.66 0 1.32 0 2 0 C2 2.64 2 5.28 2 8 C1.01 7.67 0.02 7.34 -1 7 C-1.33 6.34 -1.66 5.68 -2 5 C-2.66 5.66 -3.32 6.32 -4 7 C-4 5.02 -4 3.04 -4 1 C-3.34 1 -2.68 1 -2 1 C-1.67 1.66 -1.34 2.32 -1 3 C-0.67 2.01 -0.34 1.02 0 0 Z " fill="#3F2600" transform="translate(39,26)"/>
<path d="M0 0 C2.8203125 -0.29296875 2.8203125 -0.29296875 6.125 -0.1875 C7.76855469 -0.14689453 7.76855469 -0.14689453 9.4453125 -0.10546875 C10.28835937 -0.07066406 11.13140625 -0.03585938 12 0 C12 0.66 12 1.32 12 2 C7.38 2.33 2.76 2.66 -2 3 C-1.34 2.01 -0.68 1.02 0 0 Z " fill="#EBC322" transform="translate(22,17)"/>
<path d="M0 0 C0 1.32 0 2.64 0 4 C-2.70879335 5.35439668 -5.00933268 5.06501451 -8 5 C-8 4.34 -8 3.68 -8 3 C-5.09451118 0.95830515 -3.59857954 0 0 0 Z " fill="#F4C110" transform="translate(44,39)"/>
<path d="M0 0 C0.33 0 0.66 0 1 0 C1 2.64 1 5.28 1 8 C1.66 8 2.32 8 3 8 C3.33 7.34 3.66 6.68 4 6 C4 6.66 4 7.32 4 8 C4.66 8.33 5.32 8.66 6 9 C3 11 3 11 0.3125 10.625 C-0.450625 10.41875 -1.21375 10.2125 -2 10 C-2 9.34 -2 8.68 -2 8 C-1.34 8 -0.68 8 0 8 C0 5.36 0 2.72 0 0 Z " fill="#E9C72C" transform="translate(41,26)"/>
<path d="M0 0 C0.33 0 0.66 0 1 0 C1 1.65 1 3.3 1 5 C-3.29 5 -7.58 5 -12 5 C-12 4.67 -12 4.34 -12 4 C-11.38511719 3.96261719 -10.77023438 3.92523438 -10.13671875 3.88671875 C-9.32847656 3.82097656 -8.52023438 3.75523438 -7.6875 3.6875 C-6.88699219 3.62949219 -6.08648437 3.57148437 -5.26171875 3.51171875 C-2.62476049 2.91510125 -1.74451753 2.00216935 0 0 Z " fill="#F2EBF8" transform="translate(60,57)"/>
<path d="M0 0 C2.46800047 1.15173355 4.04783565 2.04783565 6 4 C5.625 7.125 5.625 7.125 5 10 C4.67 9.01 4.34 8.02 4 7 C3.34 6.67 2.68 6.34 2 6 C2 5.01 2 4.02 2 3 C1.34 2.67 0.68 2.34 0 2 C0 1.34 0 0.68 0 0 Z " fill="#E2C023" transform="translate(44,24)"/>
<path d="M0 0 C1.485 0.99 1.485 0.99 3 2 C3 2.66 3 3.32 3 4 C5.31 4 7.62 4 10 4 C10 4.33 10 4.66 10 5 C6.7 5 3.4 5 0 5 C0 3.35 0 1.7 0 0 Z " fill="#EEF2EB" transform="translate(0,57)"/>
<path d="M0 0 C0.66 0 1.32 0 2 0 C2.66 1.98 3.32 3.96 4 6 C2.68 6 1.36 6 0 6 C0 4.02 0 2.04 0 0 Z " fill="#FAC013" transform="translate(2,24)"/>
<path d="M0 0 C2.97 0.99 5.94 1.98 9 3 C9 3.33 9 3.66 9 4 C6.03 3.67 3.06 3.34 0 3 C0 2.01 0 1.02 0 0 Z " fill="#E9C427" transform="translate(12,37)"/>
<path d="M0 0 C2.64 0 5.28 0 8 0 C5.33440687 1.77706209 2.9719385 2.87548273 0 4 C0 2.68 0 1.36 0 0 Z " fill="#E1C21D" transform="translate(11,20)"/>
<path d="M0 0 C1.65 0 3.3 0 5 0 C3.625 2.5 3.625 2.5 2 5 C1.34 5 0.68 5 0 5 C0 3.35 0 1.7 0 0 Z " fill="#EFE3A3" transform="translate(0,0)"/>
</svg>
