<?xml version="1.0" encoding="UTF-8"?>
<svg version="1.1" xmlns="http://www.w3.org/2000/svg" width="1024" height="1024">
<path d="M0 0 C337.92 0 675.84 0 1024 0 C1024 337.92 1024 675.84 1024 1024 C686.08 1024 348.16 1024 0 1024 C0 686.08 0 348.16 0 0 Z " fill="#FDFDFD" transform="translate(0,0)"/>
<path d="M0 0 C1.14306427 -0.00538554 2.28612854 -0.01077108 3.46383113 -0.01631981 C7.26113053 -0.03052873 11.05807784 -0.02351295 14.85539246 -0.01637268 C17.59141941 -0.0204397 20.32742886 -0.02894598 23.06344604 -0.03717041 C29.70436751 -0.05430159 36.34519413 -0.0552102 42.98613194 -0.04995751 C48.38856798 -0.04590356 53.79097615 -0.04737385 59.19341087 -0.05270576 C59.9645553 -0.05345419 60.73569972 -0.05420261 61.53021216 -0.05497371 C63.09718779 -0.05650531 64.66416341 -0.05804366 66.23113903 -0.05958868 C80.90184737 -0.07329343 95.57250228 -0.06789054 110.24320938 -0.05640347 C123.63747553 -0.04647556 137.03160345 -0.05940769 150.42584828 -0.08333766 C164.20907621 -0.10777531 177.99223989 -0.11732495 191.77548903 -0.11068493 C199.50169151 -0.10720275 207.22778778 -0.10935814 214.95397377 -0.12693596 C221.53177033 -0.14171657 228.1093859 -0.14221755 234.68717913 -0.12486505 C238.03707373 -0.11639986 241.38638302 -0.11629437 244.73630142 -0.1295166 C267.96910121 -0.21417785 286.75857777 2.01948859 304.34440613 18.56736755 C316.5996485 31.21660249 321.5353952 46.90262505 321.38876343 64.27079773 C321.3913267 65.40402773 321.39388998 66.53725772 321.39653093 67.70482802 C321.40143702 71.46807606 321.38502816 75.23091485 321.36857605 78.99412537 C321.3660538 81.70522309 321.36807445 84.41631307 321.36990356 87.12741089 C321.37147018 92.94675614 321.36212534 98.76599981 321.34519005 104.58531952 C321.32072111 112.99887292 321.31298674 121.41237763 321.30922607 129.82596275 C321.30267392 143.4792127 321.28274644 157.13240863 321.25431824 170.78562927 C321.22674558 184.04181144 321.20552773 197.29797888 321.1927948 210.55418396 C321.19200663 211.37245506 321.19121846 212.19072616 321.1904064 213.03379336 C321.18649105 217.13916525 321.18269999 221.24453724 321.17897069 225.34990931 C321.1479133 259.36254035 321.09428079 293.37509977 321.02799988 327.38768005 C310.79799988 327.05768005 300.56799988 326.72768005 290.02799988 326.38768005 C290.01920052 321.40349472 290.01920052 321.40349472 290.01022339 316.31861877 C289.95501935 285.83092165 289.88504552 255.3432926 289.7990136 224.85566718 C289.78774576 220.85787491 289.77660726 216.86008229 289.76554871 212.86228943 C289.76224318 211.66848287 289.76224318 211.66848287 289.75887088 210.45055901 C289.72352188 197.57277084 289.69864422 184.69498274 289.67765286 171.81716408 C289.65587169 158.59819197 289.6227993 145.37928268 289.57929832 132.16036403 C289.55282146 124.00701756 289.53509691 115.85374933 289.52865384 107.70036201 C289.5233878 102.10531082 289.50713012 96.510358 289.48233422 90.91535957 C289.46836067 87.689838 289.46076513 84.46452639 289.46299171 81.2389698 C289.46464678 77.7346342 289.44792415 74.23083912 289.42672729 70.72657776 C289.43157487 69.71682298 289.43642245 68.7070682 289.44141692 67.66671479 C289.34455699 57.93644268 287.43629458 49.00292481 280.49674988 41.7978363 C273.01984712 34.84771533 265.42539068 33.9433838 255.57929993 33.99327087 C254.44429263 33.98717977 253.30928533 33.98108867 252.13988388 33.97481298 C248.34613912 33.9581972 244.55273051 33.96295694 240.75895691 33.96775818 C238.03510988 33.96205216 235.31128296 33.95192314 232.58744812 33.9420929 C225.96236846 33.92107375 219.33737637 33.91649601 212.71226729 33.91828078 C207.32542383 33.91959013 201.9386076 33.91577548 196.55176926 33.90835571 C194.99812409 33.90625644 193.44447891 33.90415884 191.89083374 33.90206289 C191.11746173 33.90101937 190.34408972 33.89997584 189.5472822 33.89890069 C174.93206649 33.88001266 160.316901 33.88104416 145.70167814 33.88787001 C132.34255334 33.89344502 118.98362033 33.87261937 105.62454034 33.83950955 C91.89457161 33.80574561 78.16469469 33.79060753 64.43468368 33.79522657 C56.73146648 33.79746846 49.02842656 33.79226927 41.3252449 33.76733398 C34.76731094 33.74628591 28.20965149 33.74276345 21.65170611 33.76163357 C18.3084212 33.77077022 14.96606489 33.76927156 11.62275314 33.75127792 C7.9915927 33.73308577 4.36178697 33.74583698 0.73066711 33.76622009 C-0.31643114 33.75370224 -1.36352939 33.7411844 -2.4423579 33.72828722 C-11.42453592 33.8361191 -19.52998214 36.94566207 -25.97200012 43.38768005 C-30.29101435 49.4416829 -32.09502505 53.81097795 -32.11066532 61.34735394 C-32.11350754 62.06330916 -32.11634976 62.77926439 -32.1192781 63.51691523 C-32.12765067 65.93435346 -32.12889532 68.35174392 -32.13021851 70.76919556 C-32.13478211 72.51245164 -32.13978184 74.25570663 -32.14518207 75.99896032 C-32.15879551 80.80364402 -32.16619079 85.60832062 -32.17260873 90.41301858 C-32.18059862 95.58889182 -32.19430124 100.76475021 -32.20732117 105.94061279 C-32.22910398 114.91292037 -32.24724186 123.88522944 -32.2629261 132.85754967 C-32.28560831 145.8301277 -32.31375341 158.80268932 -32.34324538 171.77525345 C-32.39094153 192.82077839 -32.43420023 213.86631002 -32.47468567 234.91184998 C-32.51403031 255.35944643 -32.55546543 275.8070369 -32.59968567 296.25462341 C-32.60243517 297.5272057 -32.60518468 298.79978798 -32.6080175 300.11093336 C-32.6295358 310.06289709 -32.65117561 320.01486055 -32.67285383 329.96682394 C-32.77913814 378.77376391 -32.87482041 427.58071946 -32.97200012 476.38768005 C40.94799988 476.38768005 114.86799988 476.38768005 191.02799988 476.38768005 C193.00799988 481.33768005 194.98799988 486.28768005 197.02799988 491.38768005 C201.46730918 501.02014362 206.29491583 509.20527113 213.02799988 517.38768005 C214.07600769 518.66578552 214.07600769 518.66578552 215.14518738 519.9697113 C233.57151427 541.39959698 259.40942836 555.3363229 287.52799988 558.51268005 C288.25503113 558.59904724 288.98206238 558.68541443 289.73112488 558.7743988 C291.49621164 558.98342224 293.26203356 559.18622273 295.02799988 559.38768005 C286.34560258 571.38981749 272.3769182 577.95760723 258.02799988 580.38768005 C249.14250103 581.26392556 240.19323415 581.07296904 231.27555847 581.03465271 C228.60773786 581.04143977 225.93998627 581.05017053 223.27218628 581.061203 C216.81703736 581.08328162 210.36218128 581.07870409 203.90702151 581.0641398 C198.65581573 581.0527883 193.40469128 581.05134199 188.15347672 581.05675888 C187.40243727 581.05752505 186.65139782 581.05829121 185.8775996 581.05908059 C184.35129063 581.06067942 182.82498168 581.06230049 181.29867275 581.06394355 C167.03182629 581.07815546 152.76514123 581.06187925 138.49832125 581.03494172 C126.28677931 581.01259789 114.07547506 581.01649602 101.86393738 581.03953552 C87.64056133 581.06635866 73.41732617 581.07679218 59.19392836 581.0614742 C57.67424943 581.05988166 56.15457048 581.0583098 54.63489151 581.05675888 C53.51367656 581.05560181 53.51367656 581.05560181 52.36981081 581.05442137 C47.13078187 581.05012454 41.89184317 581.05734691 36.65282822 581.06915665 C30.25991949 581.08325252 23.86731728 581.07923396 17.47444318 581.05275293 C14.2196896 581.03971018 10.96554408 581.03703802 7.71077919 581.05099869 C-14.26721783 581.13653786 -31.04449724 578.36772978 -47.65168762 562.80174255 C-62.62663249 547.22174941 -65.43168431 528.69730583 -65.35968018 508.0506897 C-65.3638578 506.09586495 -65.36933766 504.14104262 -65.37599999 502.18622476 C-65.39041711 496.83790147 -65.38622152 491.48973278 -65.37883317 486.14140117 C-65.37409455 480.36416048 -65.38661754 474.58695291 -65.39685059 468.8097229 C-65.41403052 457.50049951 -65.41488022 446.19133169 -65.40963768 434.88209864 C-65.4055931 425.68771327 -65.40704297 416.49334431 -65.41238594 407.29895973 C-65.41313436 405.98939523 -65.41388278 404.67983072 -65.41465389 403.33058244 C-65.4161854 400.67002882 -65.41772374 398.00947519 -65.41926885 395.34892157 C-65.42932305 377.49044928 -65.43326445 359.63198283 -65.42564297 341.77350903 C-65.42534579 341.07570373 -65.42504862 340.37789844 -65.42474244 339.65894753 C-65.42229371 333.99290679 -65.41968202 328.32686613 -65.41705831 322.66082547 C-65.40695818 300.56543497 -65.41530907 278.4701205 -65.43855286 256.3747406 C-65.46464965 231.52734447 -65.47741735 206.67999454 -65.47036511 181.8325842 C-65.46687446 168.68493719 -65.46909481 155.53735258 -65.48661613 142.38971519 C-65.50134755 131.1969611 -65.50196121 120.00431334 -65.48454522 108.81156131 C-65.47604054 103.10437706 -65.47387289 97.39738271 -65.48919678 91.69020844 C-65.50306941 86.45863262 -65.49824741 81.22740893 -65.47895754 75.99585334 C-65.47520514 74.11035972 -65.4780974 72.22483772 -65.48856919 70.33936944 C-65.58932581 50.79755342 -62.19906226 34.31695922 -48.24153137 19.6650238 C-47.49258606 18.91350037 -46.74364075 18.16197693 -45.97200012 17.38768005 C-45.35711731 16.74959412 -44.7422345 16.11150818 -44.10871887 15.4540863 C-32.22102953 4.02459484 -16.06462792 -0.09245526 0 0 Z " fill="#08487B" transform="translate(365.9720001220703,107.61231994628906)"/>
<path d="M0 0 C0.85012319 -0.0055344 1.70024637 -0.01106879 2.57613087 -0.0167709 C5.42369159 -0.0303801 8.27037625 -0.01540678 11.11791992 -0.00050354 C13.15978366 -0.00428662 15.20164483 -0.00978656 17.24349976 -0.01687622 C22.78892601 -0.03084952 28.33404266 -0.01964776 33.87945175 -0.00316501 C39.68005371 0.01067492 45.4806375 0.00422662 51.28125 0.0007019 C61.0227559 -0.00200105 70.76413864 0.01148278 80.50561523 0.03465271 C91.77156425 0.06126292 103.03730734 0.06300983 114.30327702 0.05126435 C125.13632406 0.04048885 135.96929653 0.04667186 146.80233765 0.06081963 C151.41468059 0.06658139 156.026969 0.06649523 160.63931274 0.06175423 C166.06973705 0.05698541 171.49993557 0.06708234 176.93031693 0.08870888 C178.92455916 0.09427819 180.91882308 0.09474073 182.91306686 0.08975601 C185.63288842 0.08380976 188.35201815 0.09629569 191.07177734 0.11352539 C191.86311978 0.10751535 192.65446222 0.1015053 193.46978474 0.09531313 C197.99774643 0.14756195 200.96233905 0.65117992 204.53588867 3.50120544 C205.99618251 5.81592264 207.19122359 7.96976274 208.35620117 10.42308044 C208.69669998 11.11120316 209.03719879 11.79932587 209.38801575 12.50830078 C210.49271129 14.74949149 211.57693969 16.99991762 212.66088867 19.25120544 C213.42220958 20.80669079 214.18466858 22.36161961 214.94824219 23.91600037 C217.162831 28.43544487 219.35129929 32.9672049 221.53588867 37.50120544 C222.09743652 38.66152283 222.65898438 39.82184021 223.23754883 41.01731873 C225.52396628 45.74515242 227.78909453 50.48143066 230.02026367 55.23558044 C231.74473466 58.8942922 233.55498801 62.49369718 235.42651367 66.07933044 C241.81525265 78.47932682 245.31716612 87.47364038 240.91088867 101.37620544 C236.35397697 112.26482605 228.38188795 119.98926975 217.53588867 124.50120544 C208.16637797 128.10486341 197.68080215 127.49553547 188.53588867 123.50120544 C179.5408282 118.69023307 173.27626403 112.01398699 169.53588867 102.50120544 C168.73600189 99.84249085 168.11850712 97.22009156 167.53588867 94.50120544 C167.31674805 95.34683044 167.09760742 96.19245544 166.87182617 97.06370544 C164.84326658 104.32034139 162.7555897 110.00479737 157.53588867 115.50120544 C157.01124023 116.05421326 156.4865918 116.60722107 155.94604492 117.17698669 C148.50624983 124.23166298 138.58175601 126.89900585 128.54370117 126.77854919 C118.31702818 125.83557026 110.13614537 120.56853311 103.28588867 113.18870544 C98.74646656 107.59791853 96.56033025 101.57086662 95.53588867 94.50120544 C95.31674805 95.34683044 95.09760742 96.19245544 94.87182617 97.06370544 C92.84326658 104.32034139 90.7555897 110.00479737 85.53588867 115.50120544 C85.01124023 116.05421326 84.4865918 116.60722107 83.94604492 117.17698669 C76.81522452 123.93868227 67.07276499 126.91734133 57.38354492 126.77464294 C48.11144414 125.88431777 40.07369143 122.10386736 33.53588867 115.50120544 C28.33392464 109.05578948 23.91272563 102.01776707 24.53588867 93.50120544 C23.87588867 93.50120544 23.21588867 93.50120544 22.53588867 93.50120544 C22.44307617 95.41933044 22.44307617 95.41933044 22.34838867 97.37620544 C21.42668254 105.40641227 17.60503221 112.41077907 11.69995117 117.89964294 C1.65483267 125.33375591 -8.16774928 127.63072513 -20.46411133 126.50120544 C-32.23161316 123.27418367 -40.81578108 116.60596202 -47.46411133 106.50120544 C-51.69927932 98.72897408 -52.44433752 90.19782093 -51.46411133 81.50120544 C-49.99035599 77.10265496 -47.89597939 73.17664958 -45.65161133 69.12620544 C-44.44388842 66.83558887 -43.23819418 64.54390165 -42.03442383 62.25120544 C-41.12611816 60.54770935 -41.12611816 60.54770935 -40.19946289 58.80979919 C-37.66654807 53.980584 -35.34343168 49.06169922 -33.02661133 44.12620544 C-31.18017647 40.24748991 -29.32371332 36.37362381 -27.46411133 32.50120544 C-27.18142395 31.91224487 -26.89873657 31.3232843 -26.60748291 30.71647644 C-24.75953857 26.87169531 -22.89585665 23.0350652 -21.0151062 19.20622253 C-20.40391269 17.95708584 -19.79698479 16.70585182 -19.1946106 15.45243835 C-18.35079145 13.69871305 -17.48977324 11.95329533 -16.62817383 10.20823669 C-15.89268311 8.69967102 -15.89268311 8.69967102 -15.14233398 7.16062927 C-11.20451436 0.92049701 -7.06836846 -0.08579311 0 0 Z " fill="#07487B" transform="translate(398.464111328125,238.49879455566406)"/>
<path d="M0 0 C6.88435692 5.82357901 12.32094067 12.5904102 17.5 19.9375 C18.39332031 21.20013672 18.39332031 21.20013672 19.3046875 22.48828125 C32.99191889 43.58647471 36.49945854 70.51612286 31.47265625 94.80859375 C25.64926862 120.52905765 11.77170901 142.5669449 -10.5 156.9375 C-20.03184037 162.644188 -29.62190043 167.39268398 -40.5 169.9375 C-41.53350586 170.19805176 -41.53350586 170.19805176 -42.58789062 170.46386719 C-50.08076212 172.19086017 -57.45915973 172.32356251 -65.125 172.3125 C-66.12228119 172.31118576 -66.12228119 172.31118576 -67.13970947 172.30984497 C-77.50483299 172.26478464 -86.7396056 171.59900201 -96.5 167.9375 C-97.15564941 167.69612305 -97.81129883 167.45474609 -98.48681641 167.20605469 C-123.81560816 157.67854608 -143.12201715 138.84277409 -154.48193359 114.37646484 C-164.81438693 89.62317736 -165.77035914 61.94548985 -156.10375977 36.87475586 C-150.82878197 24.06409549 -143.30781388 13.63338448 -133.5 3.9375 C-132.70980469 3.13699219 -131.91960938 2.33648437 -131.10546875 1.51171875 C-120.13940893 -9.01788097 -106.89170581 -15.57094032 -92.5 -20.0625 C-91.44167969 -20.4028125 -90.38335938 -20.743125 -89.29296875 -21.09375 C-57.89503436 -29.45620848 -24.6429823 -20.11164398 0 0 Z " fill="#1F8BD7" transform="translate(731.5,477.0625)"/>
<path d="M0 0 C8.25 0 16.5 0 25 0 C25 39.93 25 79.86 25 121 C36.55 121 48.1 121 60 121 C59.97905273 117.9060083 59.95810547 114.8120166 59.93652344 111.62426758 C59.87027046 101.40638873 59.82607132 91.18850044 59.79275131 80.97046375 C59.77186891 74.77470865 59.74353873 68.57917346 59.69824219 62.38354492 C59.65480866 56.40538557 59.63086781 50.42743787 59.62049103 44.44913292 C59.61309525 42.16733149 59.5986532 39.88554176 59.57707977 37.60383034 C59.54807971 34.40986647 59.54404268 31.21677924 59.54589844 28.02270508 C59.53151733 27.07755539 59.51713623 26.1324057 59.50231934 25.15861511 C59.52844208 21.00868779 59.62805491 18.62774112 61.77838135 14.99858093 C65.16330668 11.95348261 67.79708143 10.75180021 72.35092163 10.73930359 C73.2144072 10.73221878 74.07789276 10.72513397 74.96754456 10.71783447 C76.3765226 10.7215506 76.3765226 10.7215506 77.81396484 10.7253418 C78.80952896 10.72023087 79.80509308 10.71511993 80.83082581 10.70985413 C84.12425741 10.69594596 87.41748001 10.69691596 90.7109375 10.69921875 C93.00013304 10.69533226 95.28932785 10.69099769 97.57852173 10.68623352 C102.37854346 10.6787685 107.17849165 10.67906449 111.97851562 10.68432617 C118.12774859 10.69011861 124.27668014 10.67319639 130.42586327 10.6499815 C135.15450804 10.63524417 139.88308025 10.63437252 144.61174393 10.63749123 C146.87873557 10.63697793 149.14573127 10.63173871 151.41270065 10.62167931 C154.58441449 10.60933367 157.75554155 10.61609592 160.92724609 10.62768555 C161.86251633 10.62004181 162.79778656 10.61239807 163.76139832 10.60452271 C169.87170281 10.65383618 174.04781606 11.50255713 178.85371399 15.56817627 C180.73260574 19.55420898 180.39000535 23.56128148 180.34057617 27.90917969 C180.34101425 28.91438156 180.34145233 29.91958344 180.34190369 30.95524597 C180.33981373 34.27765325 180.31647242 37.59955587 180.29296875 40.921875 C180.28737354 43.22544072 180.28310309 45.52901 180.28010559 47.83258057 C180.26865095 53.8956691 180.23917818 59.95854205 180.20599365 66.02154541 C180.17530627 72.20834436 180.16160309 78.39517813 180.14648438 84.58203125 C180.11430929 96.72144889 180.06310525 108.86070652 180 121 C181.11375 120.979375 182.2275 120.95875 183.375 120.9375 C187 121 187 121 189 122 C188.82984375 122.55945313 188.6596875 123.11890625 188.484375 123.6953125 C186.90910666 128.90710456 185.38313783 134.13105779 183.890625 139.3671875 C183.53516602 140.6135498 183.17970703 141.85991211 182.81347656 143.14404297 C182.5450293 144.08650879 182.27658203 145.02897461 182 146 C159.82530517 146.09345974 137.65064284 146.1639873 115.47579098 146.20724869 C105.17951306 146.22787001 94.88335755 146.25598247 84.5871582 146.30175781 C75.6125229 146.34163865 66.63797625 146.36743594 57.6632548 146.37635398 C52.91159595 146.3815666 48.16019073 146.39380929 43.4086132 146.42292023 C38.93444804 146.45010899 34.46064053 146.458438 29.9864006 146.45243073 C28.34612521 146.45352941 26.70583762 146.46146278 25.06563377 146.4768219 C22.8211878 146.4968049 20.57808166 146.49191015 18.33360291 146.48101807 C17.07904265 146.48470524 15.8244824 146.48839241 14.53190517 146.49219131 C9.122614 145.73837546 5.46665529 143.47763542 1.59088135 139.57284546 C-0.86200802 134.06407847 -0.52269399 128.79711401 -0.45410156 122.83447266 C-0.45297226 121.49370355 -0.45360856 120.15293198 -0.45587158 118.81216431 C-0.45701647 115.18431771 -0.43354442 111.55700308 -0.40557575 107.9292798 C-0.38052411 104.1336568 -0.37821715 100.3380208 -0.37347412 96.54232788 C-0.36105534 89.36005226 -0.32824879 82.17802099 -0.28807616 74.99585283 C-0.24332412 66.81694377 -0.22136281 58.63802288 -0.20129442 50.45902181 C-0.15951497 33.6391824 -0.08617658 16.81967944 0 0 Z " fill="#064579" transform="translate(373,380)"/>
<path d="M0 0 C6.88435692 5.82357901 12.32094067 12.5904102 17.5 19.9375 C18.39332031 21.20013672 18.39332031 21.20013672 19.3046875 22.48828125 C32.99191889 43.58647471 36.49945854 70.51612286 31.47265625 94.80859375 C25.64926862 120.52905765 11.77170901 142.5669449 -10.5 156.9375 C-20.03184037 162.644188 -29.62190043 167.39268398 -40.5 169.9375 C-41.53350586 170.19805176 -41.53350586 170.19805176 -42.58789062 170.46386719 C-50.08076212 172.19086017 -57.45915973 172.32356251 -65.125 172.3125 C-66.12228119 172.31118576 -66.12228119 172.31118576 -67.13970947 172.30984497 C-77.50483299 172.26478464 -86.7396056 171.59900201 -96.5 167.9375 C-97.15564941 167.69612305 -97.81129883 167.45474609 -98.48681641 167.20605469 C-123.81560816 157.67854608 -143.12201715 138.84277409 -154.48193359 114.37646484 C-164.81438693 89.62317736 -165.77035914 61.94548985 -156.10375977 36.87475586 C-150.82878197 24.06409549 -143.30781388 13.63338448 -133.5 3.9375 C-132.70980469 3.13699219 -131.91960938 2.33648437 -131.10546875 1.51171875 C-120.13940893 -9.01788097 -106.89170581 -15.57094032 -92.5 -20.0625 C-91.44167969 -20.4028125 -90.38335938 -20.743125 -89.29296875 -21.09375 C-57.89503436 -29.45620848 -24.6429823 -20.11164398 0 0 Z M-113.5 18.9375 C-114.32757812 19.576875 -115.15515625 20.21625 -116.0078125 20.875 C-127.52741404 30.40846335 -134.85272594 45.45406674 -137.5 59.9375 C-137.68046875 60.6903125 -137.8609375 61.443125 -138.046875 62.21875 C-140.13020453 74.71872716 -138.63270632 87.05427561 -134.5 98.9375 C-133.95666016 100.52498047 -133.95666016 100.52498047 -133.40234375 102.14453125 C-130.56172913 109.6456797 -126.50060376 115.70360668 -121.5 121.9375 C-120.94441406 122.65808594 -120.38882813 123.37867188 -119.81640625 124.12109375 C-112.35256296 133.3032319 -102.2387818 139.27805424 -91.5 143.9375 C-90.60925781 144.35257813 -89.71851563 144.76765625 -88.80078125 145.1953125 C-75.19720232 150.50312092 -55.08251003 150.65698338 -41.4609375 145.3203125 C-40.48382812 144.86398437 -39.50671875 144.40765625 -38.5 143.9375 C-37.88157227 143.66905273 -37.26314453 143.40060547 -36.62597656 143.12402344 C-18.4201038 135.19353472 -4.18368342 122.6788828 3.5 103.9375 C9.93123163 86.5622742 12.13688468 65.53641335 4.9765625 48.015625 C4.48929688 46.99984375 4.00203125 45.9840625 3.5 44.9375 C3.05398438 43.96296875 2.60796875 42.9884375 2.1484375 41.984375 C-6.22570414 25.23609172 -20.60532297 12.2010949 -38.078125 5.58203125 C-64.42339007 -2.74860622 -92.25077704 0.81440527 -113.5 18.9375 Z " fill="#07477A" transform="translate(731.5,477.0625)"/>
<path d="M0 0 C8.50697058 6.94127047 14.65574556 16.01936621 15.91015625 27.16601562 C16.65469474 40.55487157 14.37789049 51.57037167 5.6875 62.1875 C-1.65255124 70.02412976 -9.74213508 73.60146921 -20.390625 74.42578125 C-30.12670275 74.65359588 -38.01664882 73.01265111 -45.3125 66.1875 C-45.8075 65.6925 -45.8075 65.6925 -46.3125 65.1875 C-46.3125 78.0575 -46.3125 90.9275 -46.3125 104.1875 C-53.5725 104.1875 -60.8325 104.1875 -68.3125 104.1875 C-68.3125 67.8875 -68.3125 31.5875 -68.3125 -5.8125 C-61.7125 -5.8125 -55.1125 -5.8125 -48.3125 -5.8125 C-47.9825 -3.1725 -47.6525 -0.5325 -47.3125 2.1875 C-46.36375 1.259375 -45.415 0.33125 -44.4375 -0.625 C-32.10665137 -11.0153366 -12.56256611 -8.84120219 0 0 Z " fill="#074579" transform="translate(478.3125,775.8125)"/>
<path d="M0 0 C22.77 0 45.54 0 69 0 C69 27.06 69 54.12 69 82 C46.23 82 23.46 82 0 82 C0 54.94 0 27.88 0 0 Z " fill="#FDFDFD" transform="translate(458,419)"/>
<path d="M0 0 C7.14446014 6.051778 13.33972245 14.2567651 14.9921875 23.6875 C15.81043417 36.47092753 15.14974844 47.53501915 6.671875 57.84765625 C-0.66978863 65.88933897 -9.96232784 71.85024952 -21.09155273 72.88037109 C-35.5673727 73.40456956 -47.56915746 72.36018699 -59.078125 62.55859375 C-67.1780715 54.70459704 -71.04072339 46.01388862 -71.53198242 34.74316406 C-71.71152323 23.06500668 -69.44547233 14.43835618 -61.8203125 5.3125 C-45.75933422 -11.22632557 -18.79231387 -13.76726291 0 0 Z " fill="#084679" transform="translate(384.0078125,777.3125)"/>
<path d="M0 0 C-3.07517084 12.66970387 -3.07517084 12.66970387 -5 18 C-8.00523443 17.00272726 -11.00677038 15.99766387 -14 14.96484375 C-14.99 14.62582031 -15.98 14.28679688 -17 13.9375 C-17.99 13.59589844 -18.98 13.25429688 -20 12.90234375 C-28.17693404 10.44287531 -36.9769717 9.69640011 -45 13 C-48.13294752 15.81161957 -48.91358678 17.30869428 -49.4375 21.5 C-48.95519358 25.35845136 -48.53830096 27.06508951 -46 30 C-38.69197847 34.11445837 -30.92733386 36.4000722 -22.93164062 38.82421875 C-14.48325718 41.51015193 -6.91678213 45.12944884 -1.0625 52 C-0.51722656 52.61875 0.02804688 53.2375 0.58984375 53.875 C5.20542186 60.830331 4.64855241 68.99287211 4 77 C2.36736751 84.71883844 -1.73139236 90.29330296 -8 95 C-22.96382149 103.67371954 -41.00396089 104.21446226 -57.46704102 99.85400391 C-63.44552566 98.08379105 -68.75661811 95.33265798 -74 92 C-72.36959185 85.98922864 -70.72852643 79.98336072 -69 74 C-67.96552734 74.41572266 -67.96552734 74.41572266 -66.91015625 74.83984375 C-63.7584613 76.09629127 -60.60046842 77.3346965 -57.4375 78.5625 C-56.32246094 78.99691406 -55.20742187 79.43132812 -54.05859375 79.87890625 C-48.85435303 81.78646319 -44.21992246 82.21174643 -38.6875 82.25 C-37.95337891 82.270625 -37.21925781 82.29125 -36.46289062 82.3125 C-30.53162419 82.35460304 -25.67590311 81.33062529 -21.0625 77.3125 C-19.5137368 73.94166245 -19.15220018 70.58479138 -20 67 C-22.69546568 62.79583105 -25.07708473 61.18141608 -29.75 59.5625 C-30.89597656 59.15 -32.04195312 58.7375 -33.22265625 58.3125 C-34.46917969 57.879375 -35.71570313 57.44625 -37 57 C-62.39250443 48.05610644 -62.39250443 48.05610644 -69 37 C-69.61875 35.96875 -70.2375 34.9375 -70.875 33.875 C-73.51816945 26.97427017 -73.17513014 17.92187483 -70.4375 11.125 C-65.24530598 1.44128867 -57.74919622 -4.35126754 -47.16455078 -7.55566406 C-31.42277738 -10.78711315 -13.51070017 -8.79766523 0 0 Z " fill="#084579" transform="translate(211,748)"/>
<path d="M0 0 C-1.63040815 6.01077136 -3.27147357 12.01663928 -5 18 C-8.00523443 17.00272726 -11.00677038 15.99766387 -14 14.96484375 C-14.99 14.62582031 -15.98 14.28679688 -17 13.9375 C-17.99 13.59589844 -18.98 13.25429688 -20 12.90234375 C-27.50322985 10.6455129 -36.59494035 9.32860064 -44.0625 12.3125 C-47.20787191 13.82954504 -47.20787191 13.82954504 -49 17 C-49.78958255 21.43828504 -49.69005327 24.91563057 -47.25 28.75 C-40.7811188 33.22845622 -33.50249325 35.59787717 -26.00073242 37.77294922 C-15.40594689 40.86450538 -5.14535706 45.27877314 1 55 C3.35302412 59.51064138 3.38527283 63.77229978 3.375 68.75 C3.37338867 69.55332764 3.37177734 70.35665527 3.37011719 71.18432617 C3.24566878 77.19506223 2.39094848 81.91948486 -1 87 C-1.556875 87.886875 -2.11375 88.77375 -2.6875 89.6875 C-11.72846082 98.72846082 -22.87367703 102.06393525 -35.41943359 102.19067383 C-49.77595844 102.17112273 -61.58923828 99.75390031 -74 92 C-73.35702496 89.37426939 -72.71075589 86.74942697 -72.0625 84.125 C-71.78889648 83.00544922 -71.78889648 83.00544922 -71.50976562 81.86328125 C-70.11328125 76.2265625 -70.11328125 76.2265625 -69 74 C-67.96552734 74.41572266 -67.96552734 74.41572266 -66.91015625 74.83984375 C-63.7584613 76.09629127 -60.60046842 77.3346965 -57.4375 78.5625 C-56.32246094 78.99691406 -55.20742188 79.43132812 -54.05859375 79.87890625 C-48.83464636 81.79368646 -44.17839199 82.21183236 -38.625 82.25 C-37.8825 82.270625 -37.14 82.29125 -36.375 82.3125 C-31.4511453 82.34729756 -28.35935584 81.50234927 -24 79 C-23.34 79 -22.68 79 -22 79 C-21.05640636 76.16921909 -20.74180119 74.0809686 -20.625 71.125 C-20.57601562 70.28195312 -20.52703125 69.43890625 -20.4765625 68.5703125 C-21.23661336 64.83812246 -23.15934939 63.47553154 -26 61 C-28.98043951 59.55210415 -28.98043951 59.55210415 -32.26171875 58.5703125 C-34.06479492 57.96509766 -34.06479492 57.96509766 -35.90429688 57.34765625 C-38.40646237 56.53900597 -40.90906023 55.7316922 -43.41210938 54.92578125 C-54.47585047 51.20836424 -63.9687007 46.39176569 -70 36 C-73.63262951 28.6716745 -73.26222527 19.26181003 -70.97265625 11.53125 C-67.16699512 3.18198791 -61.54263835 -2.06291571 -53.25 -5.875 C-36.33689709 -11.72953562 -15.06862199 -9.51555574 0 0 Z " fill="#084579" transform="translate(577,748)"/>
<path d="M0 0 C7.26 0 14.52 0 22 0 C22 13.53 22 27.06 22 41 C22.33 40.67 22.66 40.34 23 40 C31.36947075 32.86886931 38.74496493 30.36479466 49.78125 30.6484375 C57.32426908 31.47231094 63.74010532 34.49545906 69 40 C73.09910674 46.21549337 75.13004735 51.21860002 75.11352539 58.68652344 C75.11341209 60.39784454 75.11341209 60.39784454 75.11329651 62.14373779 C75.10813522 63.36989807 75.10297394 64.59605835 75.09765625 65.859375 C75.0962413 67.11888977 75.09482635 68.37840454 75.09336853 69.67608643 C75.08872073 73.01665119 75.07974281 76.35714721 75.06866455 79.69769287 C75.05841598 83.1096538 75.05386354 86.52162185 75.04882812 89.93359375 C75.03779963 96.62241725 75.02053524 103.31119921 75 110 C68.07 110 61.14 110 54 110 C53.95101562 106.61621094 53.90203125 103.23242188 53.8515625 99.74609375 C53.79749892 96.4562552 53.7402125 93.16648738 53.68261719 89.87670898 C53.64441659 87.59648951 53.60954838 85.31621161 53.578125 83.03588867 C53.53228076 79.75157846 53.47431786 76.46766738 53.4140625 73.18359375 C53.40251129 72.16978134 53.39096008 71.15596893 53.37905884 70.11143494 C53.34117559 60.515043 53.34117559 60.515043 48.5625 52.625 C43.44454546 49.37946786 38.3376713 49.32502507 32.546875 50.49609375 C27.67107378 51.81109452 27.67107378 51.81109452 24.5 55.5 C24.335 56.325 24.17 57.15 24 58 C23.67 58.99 23.34 59.98 23 61 C22.88507216 62.64087789 22.82367646 64.2857778 22.79467773 65.93041992 C22.77473251 66.93123093 22.75478729 67.93204193 22.73423767 68.96318054 C22.71752518 70.04138565 22.70081268 71.11959076 22.68359375 72.23046875 C22.66281265 73.33602615 22.64203156 74.44158356 22.62062073 75.5806427 C22.55517668 79.1161979 22.49626397 82.65182806 22.4375 86.1875 C22.3943099 88.58269008 22.35069546 90.97787255 22.30664062 93.37304688 C22.19870111 99.24862217 22.09958892 105.12425344 22 111 C14.74 111 7.48 111 0 111 C0 74.37 0 37.74 0 0 Z " fill="#07477A" transform="translate(227,738)"/>
<path d="M0 0 C7.26 0 14.52 0 22 0 C22.33 21.12 22.66 42.24 23 64 C26.63 59.38 30.26 54.76 34 50 C35.96103227 47.63070605 37.93469827 45.27159224 39.9375 42.9375 C43.56094659 38.78523982 43.56094659 38.78523982 46.51953125 34.1484375 C50.84164572 30.40487379 56.26457415 31.48919484 61.75 31.6875 C62.92433594 31.71005859 64.09867188 31.73261719 65.30859375 31.75585938 C68.20701637 31.8147704 71.10286427 31.89698369 74 32 C70.30626067 36.94413672 66.60362126 41.87995456 62.8125 46.75 C62.35198242 47.34345215 61.89146484 47.9369043 61.41699219 48.54833984 C57.64674292 53.33698977 53.60010645 57.80815963 49.26489258 62.09277344 C47.74841672 63.60024608 47.74841672 63.60024608 46 66 C46.55053259 70.453 49.44050511 73.45482762 52.125 76.875 C57.36896399 83.70617708 62.3330515 90.69957102 67.1875 97.8125 C67.8470166 98.77333496 68.5065332 99.73416992 69.18603516 100.72412109 C69.79882324 101.62598145 70.41161133 102.5278418 71.04296875 103.45703125 C71.58977295 104.26116455 72.13657715 105.06529785 72.69995117 105.89379883 C74 108 74 108 75 111 C54.00567372 113.35687601 54.00567372 113.35687601 47.88134766 109.75341797 C44.41171703 106.43556471 42.2293744 102.38988331 40.10302734 98.12646484 C38.62739547 95.28167654 36.85704368 92.68636877 35.0625 90.03564453 C30 82.55065918 30 82.55065918 30 80 C25.99398604 82.59672289 22.55623128 84.98294112 21.24609375 89.73388672 C20.99091605 92.8248785 20.94225838 95.83677497 21 98.9375 C20.98839844 100.00291016 20.97679687 101.06832031 20.96484375 102.16601562 C20.94142447 104.77726503 20.96589542 107.38886829 21 110 C14.07 110 7.14 110 0 110 C0 73.7 0 37.4 0 0 Z " fill="#084579" transform="translate(815,738)"/>
<path d="M0 0 C5.81380908 4.66171481 9.03661238 10.22240781 10.62890625 17.45703125 C10.73715731 18.7991398 10.80363489 20.14509144 10.83422852 21.49121094 C10.86414635 22.66197174 10.86414635 22.66197174 10.89466858 23.85638428 C10.91138107 24.68881653 10.92809357 25.52124878 10.9453125 26.37890625 C10.9660936 27.23889221 10.98687469 28.09887817 11.00828552 28.98492432 C11.07354364 31.72554723 11.13255542 34.466264 11.19140625 37.20703125 C11.23461406 39.06771795 11.27822907 40.92839523 11.32226562 42.7890625 C11.42920067 47.34495648 11.53053476 51.90094465 11.62890625 56.45703125 C13.93890625 56.78703125 16.24890625 57.11703125 18.62890625 57.45703125 C18.62890625 62.73703125 18.62890625 68.01703125 18.62890625 73.45703125 C12.04278998 75.65240334 5.84888815 77.14368007 -0.82421875 74.4765625 C-6.05648913 71.41813107 -6.05648913 71.41813107 -7.08203125 68.28515625 C-7.17742188 67.681875 -7.2728125 67.07859375 -7.37109375 66.45703125 C-8.08394531 66.93914062 -8.79679688 67.42125 -9.53125 67.91796875 C-10.96791016 68.86542969 -10.96791016 68.86542969 -12.43359375 69.83203125 C-13.37332031 70.45851563 -14.31304688 71.085 -15.28125 71.73046875 C-23.15184236 76.1284483 -31.56073719 76.47053342 -40.37109375 75.45703125 C-48.34320859 72.8505901 -54.47699198 69.1503462 -58.32421875 61.58203125 C-61.08660189 55.15321231 -61.33152967 49.36038789 -58.87109375 42.83203125 C-55.44573112 35.92183788 -49.92509798 32.8235301 -42.87109375 30.20703125 C-32.05312284 26.92471391 -20.63261012 26.02756664 -9.37109375 26.45703125 C-9.54678581 24.86974441 -9.76321684 23.28694124 -9.99609375 21.70703125 C-10.11210938 20.8253125 -10.228125 19.94359375 -10.34765625 19.03515625 C-11.84323216 15.26767496 -13.79150385 14.25919806 -17.37109375 12.45703125 C-27.49098993 10.89265497 -36.43366503 12.40482234 -45.37109375 17.45703125 C-46.46164062 18.28267578 -46.46164062 18.28267578 -47.57421875 19.125 C-49.37109375 20.45703125 -49.37109375 20.45703125 -51.37109375 20.45703125 C-54.31312274 9.10920516 -54.31312274 9.10920516 -53.37109375 3.45703125 C-40.92058747 -8.96121983 -14.00899118 -9.11622985 0 0 Z " fill="#084579" transform="translate(711.37109375,774.54296875)"/>
<path d="M0 0 C3.53066684 0.12914817 5.81147991 0.23639883 8.7590332 2.27270508 C10.62208646 4.9757748 12.02570775 7.77371134 13.49731445 10.71020508 C14.84244472 12.91257807 16.23730903 15.07866155 17.63647461 17.24707031 C19.20888867 19.68503112 20.75480476 22.13799093 22.29418945 24.59692383 C22.81948242 25.43529785 23.34477539 26.27367187 23.88598633 27.13745117 C24.41772461 27.98645996 24.94946289 28.83546875 25.49731445 29.71020508 C27.64021065 33.12872616 29.78665741 36.54498809 31.93481445 39.96020508 C32.41845459 40.73356201 32.90209473 41.50691895 33.40039062 42.30371094 C33.86421143 43.04113525 34.32803223 43.77855957 34.8059082 44.53833008 C35.20608154 45.17673828 35.60625488 45.81514648 36.01855469 46.47290039 C38.0923287 49.61043796 40.31131163 52.64980113 42.49731445 55.71020508 C42.82731445 37.56020508 43.15731445 19.41020508 43.49731445 0.71020508 C48.44731445 0.71020508 53.39731445 0.71020508 58.49731445 0.71020508 C59.49731445 1.71020508 59.49731445 1.71020508 59.61083984 3.93505859 C59.60298462 5.3725647 59.60298462 5.3725647 59.5949707 6.83911133 C59.59013672 8.39082031 59.59013672 8.39082031 59.58520508 9.97387695 C59.57263672 11.60679687 59.57263672 11.60679687 59.55981445 13.27270508 C59.55530273 14.36518555 59.55079102 15.45766602 59.54614258 16.58325195 C59.53431272 19.29229003 59.51782989 22.00122107 59.49731445 24.71020508 C60.26817383 24.68700195 61.0390332 24.66379883 61.83325195 24.63989258 C62.83614258 24.6218457 63.8390332 24.60379883 64.87231445 24.58520508 C66.36891602 24.55040039 66.36891602 24.55040039 67.89575195 24.51489258 C70.49731445 24.71020508 70.49731445 24.71020508 72.49731445 26.71020508 C72.76293945 28.58520508 72.76293945 28.58520508 72.74731445 30.71020508 C72.75504883 31.76208008 72.75504883 31.76208008 72.76293945 32.83520508 C72.49731445 34.71020508 72.49731445 34.71020508 70.49731445 36.71020508 C66.8170684 36.98649983 63.19236888 36.79613658 59.49731445 36.71020508 C59.49731445 41.00020508 59.49731445 45.29020508 59.49731445 49.71020508 C61.45668945 49.68958008 63.41606445 49.66895508 65.43481445 49.64770508 C67.45564322 49.6264332 69.47767247 49.63776455 71.49731445 49.71020508 C72.49731445 50.71020508 72.49731445 50.71020508 72.63012695 52.74145508 C72.62754883 53.55614258 72.6249707 54.37083008 72.62231445 55.21020508 C72.62618164 56.43223633 72.62618164 56.43223633 72.63012695 57.67895508 C72.49731445 59.71020508 72.49731445 59.71020508 71.49731445 60.71020508 C67.53731445 60.71020508 63.57731445 60.71020508 59.49731445 60.71020508 C59.49731445 68.63020508 59.49731445 76.55020508 59.49731445 84.71020508 C46.10331243 87.05659959 46.10331243 87.05659959 40.49731445 84.71020508 C34.46921723 79.03749067 30.8956049 71.1337006 27.14916992 63.86108398 C24.83272766 59.44252002 22.2124608 55.24445052 19.55981445 51.02270508 C18.68773731 49.59310717 17.81786791 48.16215966 16.95043945 46.72973633 C15.33269125 44.06990782 13.69757128 41.42224676 12.04418945 38.78442383 C11.66512451 38.17751709 11.28605957 37.57061035 10.89550781 36.9453125 C9.88707692 35.33368256 8.87402615 33.72494589 7.8605957 32.11645508 C6.49731445 29.71020508 6.49731445 29.71020508 6.49731445 27.71020508 C5.83731445 27.71020508 5.17731445 27.71020508 4.49731445 27.71020508 C4.49953506 28.40955673 4.50175568 29.10890839 4.50404358 29.82945251 C4.52404725 36.40725429 4.53928897 42.98504762 4.54912663 49.56287289 C4.5543542 52.9449232 4.56144956 56.32694848 4.57275391 59.70898438 C4.58565712 63.59350285 4.59054369 67.47801104 4.5949707 71.36254883 C4.60013199 72.58231918 4.60529327 73.80208954 4.61061096 75.05882263 C4.61072426 76.7404525 4.61072426 76.7404525 4.61083984 78.45605469 C4.61306046 79.44866806 4.61528107 80.44128143 4.61756897 81.463974 C4.49731445 83.71020508 4.49731445 83.71020508 3.49731445 84.71020508 C-1.17113782 84.85447122 -5.83134507 84.75228923 -10.50268555 84.71020508 C-10.50268555 76.79020508 -10.50268555 68.87020508 -10.50268555 60.71020508 C-14.46268555 60.71020508 -18.42268555 60.71020508 -22.50268555 60.71020508 C-23.50268555 59.71020508 -23.50268555 59.71020508 -23.63549805 57.67895508 C-23.63291992 56.86426758 -23.6303418 56.04958008 -23.62768555 55.21020508 C-23.63026367 54.39551758 -23.6328418 53.58083008 -23.63549805 52.74145508 C-23.50268555 50.71020508 -23.50268555 50.71020508 -22.50268555 49.71020508 C-18.83352785 49.5671022 -15.17553114 49.66798846 -11.50268555 49.71020508 C-11.50268555 45.42020508 -11.50268555 41.13020508 -11.50268555 36.71020508 C-14.19424805 36.74114258 -14.19424805 36.74114258 -16.94018555 36.77270508 C-18.79434677 36.79401728 -20.64981053 36.78247009 -22.50268555 36.71020508 C-23.50268555 35.71020508 -23.50268555 35.71020508 -23.63549805 33.46020508 C-23.63291992 32.55270508 -23.6303418 31.64520508 -23.62768555 30.71020508 C-23.63026367 29.80270508 -23.6328418 28.89520508 -23.63549805 27.96020508 C-23.50268555 25.71020508 -23.50268555 25.71020508 -22.50268555 24.71020508 C-20.64981053 24.63794006 -18.79434677 24.62639288 -16.94018555 24.64770508 C-15.92827148 24.65672852 -14.91635742 24.66575195 -13.8737793 24.67504883 C-12.70008789 24.69245117 -12.70008789 24.69245117 -11.50268555 24.71020508 C-11.50792236 24.01870361 -11.51315918 23.32720215 -11.51855469 22.61474609 C-11.53926055 19.50074156 -11.55232518 16.38675146 -11.56518555 13.27270508 C-11.57356445 12.1840918 -11.58194336 11.09547852 -11.59057617 9.97387695 C-11.59379883 8.9394043 -11.59702148 7.90493164 -11.6003418 6.83911133 C-11.60557861 5.88077393 -11.61081543 4.92243652 -11.61621094 3.93505859 C-11.34286243 -1.42198428 -4.15891703 0.03971448 0 0 Z " fill="#FBFDFD" transform="translate(641.502685546875,509.289794921875)"/>
<path d="M0 0 C6.93 0 13.86 0 21 0 C21 6.93 21 13.86 21 21 C28.26 21 35.52 21 43 21 C43 26.61 43 32.22 43 38 C35.74 38 28.48 38 21 38 C21.07423893 42.99960762 21.15727827 47.99750366 21.26245117 52.99633789 C21.29557083 54.69448786 21.32364261 56.39274448 21.34643555 58.09106445 C21.38022169 60.54163787 21.43254639 62.99124531 21.48828125 65.44140625 C21.49467117 66.19273331 21.5010611 66.94406036 21.50764465 67.71815491 C21.64762269 72.81131156 22.6175626 76.472091 25 81 C28.18546289 82.59273144 31.63199348 82.10141833 35.125 82.0625 C37.72375 82.041875 40.3225 82.02125 43 82 C43 87.61 43 93.22 43 99 C37.62426 100.53592571 33.54965798 101.35758569 28.125 101.3125 C27.42391113 101.30758545 26.72282227 101.3026709 26.00048828 101.29760742 C17.28778789 101.10101212 11.1704429 99.1704429 5 93 C-0.01028862 86.20032258 -0.2880107 79.03219134 -0.1953125 70.91015625 C-0.1924826 69.96563095 -0.18965271 69.02110565 -0.18673706 68.04795837 C-0.17560684 65.05267276 -0.1505156 62.05769414 -0.125 59.0625 C-0.11496095 57.0227908 -0.10583672 54.98307688 -0.09765625 52.94335938 C-0.07569096 47.9621226 -0.04121076 42.98111322 0 38 C-4.29 38 -8.58 38 -13 38 C-14.53266582 34.93466836 -14.10276471 31.73245728 -14.0625 28.375 C-14.05798828 27.66859375 -14.05347656 26.9621875 -14.04882812 26.234375 C-14.03703875 24.48954725 -14.01910324 22.744763 -14 21 C-9.38 21 -4.76 21 0 21 C0 14.07 0 7.14 0 0 Z " fill="#08477A" transform="translate(600,749)"/>
<path d="M0 0 C-0.68936071 3.91121498 -1.78250181 7.55508596 -3.0625 11.3125 C-3.60583984 12.91544922 -3.60583984 12.91544922 -4.16015625 14.55078125 C-4.43730469 15.35902344 -4.71445312 16.16726563 -5 17 C-5.5775 16.70351563 -6.155 16.40703125 -6.75 16.1015625 C-14.81809622 12.15155706 -23.50453255 10.10280901 -32.3671875 12.69140625 C-37.86901918 15.17242091 -41.46850904 18.82916661 -44.109375 24.296875 C-46.20555239 30.65895726 -46.15333977 38.44376819 -43.3125 44.5625 C-40.04484349 50.00097727 -35.10801554 53.34500164 -29 55 C-20.37052538 56.22435281 -12.1993685 53.799579 -5 49 C-3.93898984 51.4097519 -2.90126772 53.82549854 -1.875 56.25 C-1.42060547 57.27287109 -1.42060547 57.27287109 -0.95703125 58.31640625 C1.15143487 63.36691812 1.15143487 63.36691812 0.4375 66.3515625 C-1.286703 68.32877355 -2.70372186 69.12105541 -5.125 70.125 C-5.84945312 70.43695312 -6.57390625 70.74890625 -7.3203125 71.0703125 C-19.06332059 75.14441735 -32.98751506 76.34182624 -44.609375 71.26171875 C-55.98359095 65.25866033 -62.27054657 58.16264996 -67.0859375 46.33203125 C-68.25303219 42.07762196 -68.38367285 38.14323069 -68.375 33.75 C-68.37338867 32.90606689 -68.37177734 32.06213379 -68.37011719 31.19262695 C-68.24397463 24.77852521 -67.27765024 19.60262705 -64 14 C-63.401875 12.948125 -62.80375 11.89625 -62.1875 10.8125 C-55.44332702 2.14142046 -46.98308211 -4.16019035 -36.05078125 -6.6796875 C-22.8506912 -8.06561245 -11.40956746 -7.19298818 0 0 Z " fill="#074579" transform="translate(803,776)"/>
<path d="M0 0 C0.83106766 -0.00817749 1.66213531 -0.01635498 2.51838684 -0.02478027 C5.27551549 -0.04964359 8.03259265 -0.06615235 10.78979492 -0.08056641 C11.73052038 -0.08589008 12.67124584 -0.09121376 13.64047813 -0.09669876 C18.61935995 -0.12343399 23.59821666 -0.14280799 28.57714844 -0.15722656 C33.72229575 -0.17387851 38.86680304 -0.21865973 44.01170826 -0.26959801 C47.96568038 -0.30323754 51.91949995 -0.31480035 55.87360191 -0.32045364 C57.77024924 -0.32717488 59.66688622 -0.34241957 61.56339455 -0.36634445 C64.21857644 -0.39792982 66.87202367 -0.39804312 69.52734375 -0.390625 C70.70191132 -0.415233 70.70191132 -0.415233 71.90020752 -0.44033813 C75.89036988 -0.39471955 77.74150329 0.02378781 80.92216492 2.5105896 C83.47325453 5.87212656 83.95776367 7.98813444 83.95776367 12.19287109 C82.34840768 15.91980077 80.45934101 18.170868 76.95776367 20.19287109 C74.15734175 20.48834707 71.58005011 20.61323757 68.78027344 20.59692383 C67.9586673 20.60378708 67.13706116 20.61065033 66.29055786 20.61772156 C63.57658572 20.63601206 60.86319043 20.63214885 58.14916992 20.62646484 C56.26114209 20.63102566 54.37311592 20.63633093 52.48509216 20.64234924 C48.52824153 20.65128483 44.57159268 20.64885223 40.61474609 20.63891602 C35.54591574 20.62742737 30.47778213 20.6476339 25.40904331 20.67683315 C21.50993938 20.69518634 17.61100267 20.69490443 13.71186638 20.68919563 C11.84316976 20.6890423 9.97446189 20.69509641 8.10580635 20.70748711 C5.49164355 20.72237831 2.87877108 20.71173429 0.26464844 20.69458008 C-0.89117989 20.70908203 -0.89117989 20.70908203 -2.07035828 20.72387695 C-7.01255683 20.65602473 -9.58257462 19.73773838 -13.04223633 16.19287109 C-14.6431026 12.99113856 -14.54140722 9.6671005 -14.04223633 6.19287109 C-10.11237285 0.03608497 -6.86224181 0.03704491 0 0 Z " fill="#064377" transform="translate(459.042236328125,164.80712890625)"/>
<path d="M0 0 C7.92 0 15.84 0 24 0 C24.2718327 8.4672402 24.49163439 16.93105625 24.62174606 25.40149689 C24.68421618 29.33540194 24.76881513 33.26615304 24.90527344 37.19824219 C25.03630852 40.99812873 25.10752981 44.79499744 25.13852692 48.5969696 C25.16059179 50.04220624 25.20369163 51.48728895 25.26876068 52.93122864 C25.46582823 57.48833907 25.41660042 61.60519757 24 66 C20.41874948 69.59340544 16.44967375 71.65038364 12 74 C10.09133041 75.45691641 8.21035135 76.95173955 6.375 78.5 C2.21538462 82 2.21538462 82 0 82 C0 54.94 0 27.88 0 0 Z " fill="#07487B" transform="translate(590,380)"/>
<path d="M0 0 C4.39731352 3.0823887 7.32760717 7.35782151 9.01171875 12.41015625 C10.2085582 28.95008506 10.2085582 28.95008506 5.01171875 35.41015625 C1.02655376 39.64644123 -3.23413645 42.10688294 -9.0390625 42.74609375 C-15.81102669 42.82719512 -21.54852404 42.80578945 -26.98828125 38.41015625 C-32.31081654 32.77372786 -34.44570901 26.47809949 -34.23828125 18.77734375 C-33.50361814 11.82100242 -31.08819655 6.28340865 -25.98828125 1.41015625 C-18.16957062 -4.30694196 -8.52968556 -4.27249959 0 0 Z " fill="#FBFCFC" transform="translate(367.98828125,789.58984375)"/>
<path d="M0 0 C6.06260943 4.18608746 9.57781995 8.75137096 11.625 15.8125 C12.71591877 23.36077635 11.56013807 30.2424303 7.625 36.8125 C3.71506183 41.28761881 -0.63879948 44.39736661 -6.625 45.0625 C-12.76238934 45.36188485 -17.32807363 44.38399082 -22.375 40.8125 C-27.94896345 35.38918421 -29.55607331 28.96771358 -29.875 21.4375 C-29.70246069 14.97102689 -28.26310465 10.01926359 -24.375 4.8125 C-17.55854945 -1.64597502 -8.79731514 -3.09535162 0 0 Z " fill="#FAFBFC" transform="translate(460.375,788.1875)"/>
<path d="M0 0 C1.06488647 -0.00524185 2.12977295 -0.0104837 3.22692871 -0.0158844 C5.47272878 -0.02229233 7.71856247 -0.02098358 9.96435547 -0.01245117 C13.39481446 -0.00393464 16.82361129 -0.03273212 20.25390625 -0.06445312 C22.44010367 -0.06606516 24.62630403 -0.06548757 26.8125 -0.0625 C28.34553772 -0.07935097 28.34553772 -0.07935097 29.9095459 -0.09654236 C37.16553725 -0.02572643 40.39588461 1.2742649 45.78125 6.12109375 C47.59209708 9.84339052 47.67590412 13.38941119 46.90625 17.43359375 C45.18720248 20.50241191 43.09910833 22.83716459 39.90625 24.43359375 C38.20725705 24.5443834 36.50402164 24.59276195 34.80151367 24.6105957 C33.73668259 24.62343094 32.6718515 24.63626617 31.57475281 24.64949036 C29.84198845 24.66057076 29.84198845 24.66057076 28.07421875 24.671875 C26.89032059 24.67994675 25.70642242 24.68801849 24.48664856 24.69633484 C21.97736073 24.71018439 19.46805399 24.72090263 16.95874023 24.72875977 C13.11991716 24.74597639 9.28195418 24.78985693 5.44335938 24.83398438 C3.00781885 24.84411063 0.57227098 24.85262694 -1.86328125 24.859375 C-3.0123848 24.87688309 -4.16148834 24.89439117 -5.34541321 24.91242981 C-13.33350131 24.89067614 -13.33350131 24.89067614 -17.27612305 22.52026367 C-20.13243222 19.24116703 -20.98232611 17.43640876 -21.46875 13.05859375 C-21.01605438 8.68253606 -19.95794662 6.75003194 -17.09375 3.43359375 C-11.60689136 -0.24231781 -6.37042841 -0.01829825 0 0 Z " fill="#FBFCFC" transform="translate(478.09375,622.56640625)"/>
<path d="M0 0 C1.86785156 0.01353516 1.86785156 0.01353516 3.7734375 0.02734375 C5.18496094 0.04474609 5.18496094 0.04474609 6.625 0.0625 C6.91444223 5.65838314 6.83387163 9.24919255 3.625 14.0625 C-1.43356976 19.12106976 -5.91868831 20.69867772 -12.9375 21.4375 C-17.08486093 20.98506063 -19.15975868 19.6653144 -22.375 17.0625 C-23.94435594 13.92378812 -23.72701103 11.52394178 -23.375 8.0625 C-17.35223585 0.3189461 -9.23809829 -0.08715187 0 0 Z " fill="#F7F9FA" transform="translate(695.375,813.9375)"/>
<path d="M0 0 C7.26 0 14.52 0 22 0 C22.04585026 5.80260515 22.08569366 11.60458475 22.10986328 17.40722656 C22.11993627 19.38218309 22.13359521 21.35712466 22.15087891 23.33203125 C22.17507039 26.16670418 22.18646991 29.00118038 22.1953125 31.8359375 C22.20563507 32.72243988 22.21595764 33.60894226 22.22659302 34.52230835 C22.2269907 36.68285952 22.12272534 38.84293718 22 41 C21.34 41.66 20.68 42.32 20 43 C20 29.14 20 15.28 20 1 C14.06 1 8.12 1 2 1 C2 36.64 2 72.28 2 109 C7.94 109 13.88 109 20 109 C19.98952637 107.62223389 19.97905273 106.24446777 19.96826172 104.82495117 C19.93210204 99.72048534 19.90911418 94.61603087 19.89013672 89.51147461 C19.88006994 87.30084327 19.86641552 85.09022528 19.84912109 82.87963867 C19.82490262 79.70488189 19.81352373 76.53030094 19.8046875 73.35546875 C19.79436493 72.36475876 19.78404236 71.37404877 19.77340698 70.35331726 C19.77325592 69.43258926 19.77310486 68.51186127 19.77294922 67.56323242 C19.768508 66.7527092 19.76406677 65.94218597 19.75949097 65.10710144 C20 63 20 63 22 60 C22 76.83 22 93.66 22 111 C14.74 111 7.48 111 0 111 C0 74.37 0 37.74 0 0 Z " fill="#05316A" transform="translate(227,738)"/>
<path d="M0 0 C7.92 0 15.84 0 24 0 C24 21.78 24 43.56 24 66 C23.01 66 22.02 66 21 66 C21.33 65.67 21.66 65.34 22 65 C22.12369325 63.0064857 22.1779639 61.0086353 22.20532227 59.01147461 C22.22526749 57.73022202 22.24521271 56.44896942 22.26576233 55.12889099 C22.28274797 53.72004316 22.29962673 52.31119405 22.31640625 50.90234375 C22.33696915 49.46887095 22.35796544 48.03540431 22.37937927 46.60194397 C22.43466859 42.8224688 22.48404745 39.0429383 22.53222656 35.2633667 C22.58239165 31.40925145 22.63810371 27.55521691 22.69335938 23.70117188 C22.80102482 16.13418091 22.90193862 8.56712263 23 1 C16.07 1 9.14 1 2 1 C2.33 26.41 2.66 51.82 3 78 C3.99 78 4.98 78 6 78 C4.71034824 79.37562854 3.37310707 80.70766393 2 82 C1.34 82 0.68 82 0 82 C0 54.94 0 27.88 0 0 Z " fill="#0A3069" transform="translate(590,380)"/>
<path d="M0 0 C6.93 0 13.86 0 21 0 C21 6.93 21 13.86 21 21 C27.6 21 34.2 21 41 21 C41 21.66 41 22.32 41 23 C37.68751813 23.02888146 34.37506833 23.04675799 31.0625 23.0625 C30.11697266 23.07087891 29.17144531 23.07925781 28.19726562 23.08789062 C26.84858398 23.09272461 26.84858398 23.09272461 25.47265625 23.09765625 C24.22367554 23.10551147 24.22367554 23.10551147 22.94946289 23.11352539 C21 23 21 23 20 22 C19.91330568 20.5112814 19.89296506 19.018555 19.90234375 17.52734375 C19.90556641 16.62822266 19.90878906 15.72910156 19.91210938 14.80273438 C19.92467773 13.38444336 19.92467773 13.38444336 19.9375 11.9375 C19.94201172 10.98810547 19.94652344 10.03871094 19.95117188 9.06054688 C19.96299872 6.70700469 19.98093479 4.35349468 20 2 C14.06 2 8.12 2 2 2 C2.02320313 3.34835937 2.04640625 4.69671875 2.0703125 6.0859375 C2.08906798 7.84895281 2.10726842 9.61197409 2.125 11.375 C2.14175781 12.26445313 2.15851562 13.15390625 2.17578125 14.0703125 C2.18222656 14.92109375 2.18867187 15.771875 2.1953125 16.6484375 C2.20578613 17.43395996 2.21625977 18.21948242 2.22705078 19.02880859 C2 21 2 21 0 23 C-2.8203125 23.1953125 -2.8203125 23.1953125 -6.125 23.125 C-7.22070312 23.10695313 -8.31640625 23.08890625 -9.4453125 23.0703125 C-10.28835938 23.04710937 -11.13140625 23.02390625 -12 23 C-12 26.3 -12 29.6 -12 33 C-12.33 33 -12.66 33 -13 33 C-13 29.04 -13 25.08 -13 21 C-8.71 21 -4.42 21 0 21 C0 14.07 0 7.14 0 0 Z " fill="#002965" transform="translate(600,749)"/>
<path d="M0 0 C0.33 0 0.66 0 1 0 C1 16.83 1 33.66 1 51 C-6.26 51 -13.52 51 -21 51 C-21 50.34 -21 49.68 -21 49 C-14.4 49 -7.8 49 -1 49 C-1.01160156 45.71417969 -1.02320313 42.42835938 -1.03515625 39.04296875 C-1.04295169 35.86580502 -1.04902569 32.68864235 -1.05493164 29.51147461 C-1.059965 27.30085779 -1.06679217 25.09024431 -1.07543945 22.87963867 C-1.08754859 19.704907 -1.09323825 16.53021928 -1.09765625 13.35546875 C-1.10539818 11.86940376 -1.10539818 11.86940376 -1.11329651 10.35331726 C-1.11340981 8.97222527 -1.11340981 8.97222527 -1.11352539 7.56323242 C-1.115746 6.7527092 -1.11796661 5.94218597 -1.12025452 5.10710144 C-1 3 -1 3 0 0 Z " fill="#0B3970" transform="translate(248,798)"/>
<path d="M0 0 C0.33 0 0.66 0 1 0 C2.19388403 37.65815055 2.19388403 37.65815055 2 55 C-1.98189814 51.2802553 -4.95820659 47.4035712 -7.875 42.8125 C-8.29007813 42.18408203 -8.70515625 41.55566406 -9.1328125 40.90820312 C-10.15612792 39.3135366 -11.08679627 37.66017913 -12 36 C-11.67 35.34 -11.34 34.68 -11 34 C-6.05 41.425 -6.05 41.425 -1 49 C-0.67 32.83 -0.34 16.66 0 0 Z " fill="#0D74CF" transform="translate(683,511)"/>
<path d="M0 0 C0.33 0 0.66 0 1 0 C1.37526293 12.50876449 0.84617304 23.26383312 -4 35 C-4.66 35 -5.32 35 -6 35 C-6 33.68 -6 32.36 -6 31 C-5.34 31 -4.68 31 -4 31 C-2.68 20.77 -1.36 10.54 0 0 Z " fill="#2595E0" transform="translate(739,546)"/>
<path d="M0 0 C0 5.61 0 11.22 0 17 C-0.66 17 -1.32 17 -2 17 C-2 12.05 -2 7.1 -2 2 C-3.32 2.33 -4.64 2.66 -6 3 C-8.72738784 3.22127864 -11.24725385 3.13319739 -14 3 C-14.66 2.34 -15.32 1.68 -16 1 C-14.08351538 0.83125293 -12.16680367 0.66508357 -10.25 0.5 C-9.18265625 0.4071875 -8.1153125 0.314375 -7.015625 0.21875 C-4.6820782 0.04947717 -2.33967818 0 0 0 Z " fill="#254677" transform="translate(643,831)"/>
<path d="M0 0 C0.33 0 0.66 0 1 0 C1.54636984 8.83297901 1.22864499 16.84311587 -4.6015625 23.953125 C-6.00035451 25.37180505 -7.49217907 26.69779102 -9 28 C-9.66 27.67 -10.32 27.34 -11 27 C-9.7934375 25.9790625 -9.7934375 25.9790625 -8.5625 24.9375 C-5.57711289 21.51522698 -5.26218749 19.4571874 -5 15 C-4.01 14.67 -3.02 14.34 -2 14 C-1.34 9.38 -0.68 4.76 0 0 Z " fill="#082F68" transform="translate(214,813)"/>
<path d="M0 0 C3.63 0 7.26 0 11 0 C11 0.33 11 0.66 11 1 C8.03 1 5.06 1 2 1 C2 4.3 2 7.6 2 11 C5.3 11 8.6 11 12 11 C12.33 11.66 12.66 12.32 13 13 C8.71 13 4.42 13 0 13 C0 8.71 0 4.42 0 0 Z " fill="#0A76CE" transform="translate(701,546)"/>
<path d="M0 0 C0.99 0.66 1.98 1.32 3 2 C3 2.66 3 3.32 3 4 C-5.25 4 -13.5 4 -22 4 C-22 3.01 -22 2.02 -22 1 C-14.74 1.33 -7.48 1.66 0 2 C0 1.34 0 0.68 0 0 Z " fill="#1E4378" transform="translate(887,845)"/>
<path d="M0 0 C0.66 0.33 1.32 0.66 2 1 C0.4422692 4.82352106 -1.91595258 7.29205593 -5 10 C-5.99 10 -6.98 10 -8 10 C-8.433125 11.4540625 -8.433125 11.4540625 -8.875 12.9375 C-10 16 -10 16 -12 17 C-10.36283575 9.72371445 -5.13658655 5.07375369 0 0 Z " fill="#07326A" transform="translate(750,777)"/>
<path d="M0 0 C8.25 0 16.5 0 25 0 C23.68 1.32 22.36 2.64 21 4 C21 3.01 21 2.02 21 1 C10.11 1.495 10.11 1.495 -1 2 C-0.67 1.34 -0.34 0.68 0 0 Z " fill="#001D5C" transform="translate(864,770)"/>
<path d="M0 0 C3.56504389 1.32038663 5.3111324 3.46360868 7.62890625 6.40234375 C9.81792365 8.95307912 12.36766927 10.91862222 15 13 C10.69406342 13 8.78604885 10.4269306 5.8125 7.625 C5.25369141 7.11710938 4.69488281 6.60921875 4.11914062 6.0859375 C2.70150758 4.77042942 1.34544619 3.38925142 0 2 C0 1.34 0 0.68 0 0 Z " fill="#13356C" transform="translate(594,616)"/>
<path d="M0 0 C0 3.69840628 -0.82866944 4.31415433 -3.25 7 C-4.15492188 8.0209375 -4.15492188 8.0209375 -5.078125 9.0625 C-6.93766612 10.93715934 -8.84794211 12.47641919 -11 14 C-11.66 13.67 -12.32 13.34 -13 13 C-12.48050781 12.56429687 -11.96101562 12.12859375 -11.42578125 11.6796875 C-7.16777334 8.04345894 -3.44527348 4.41425664 0 0 Z " fill="#083F6F" transform="translate(725,597)"/>
<path d="M0 0 C0.33 0 0.66 0 1 0 C1.1875 3.375 1.1875 3.375 1 7 C0.01 7.66 -0.98 8.32 -2 9 C-2 8.34 -2 7.68 -2 7 C-5.63 7 -9.26 7 -13 7 C-13 6.67 -13 6.34 -13 6 C-9.37 6 -5.74 6 -2 6 C-1.67 4.68 -1.34 3.36 -1 2 C-0.67 1.34 -0.34 0.68 0 0 Z " fill="#26608B" transform="translate(704,795)"/>
<path d="M0 0 C3.68266103 0.59950296 7.34543185 1.24758891 11 2 C10.67 2.66 10.34 3.32 10 4 C6.7 3.67 3.4 3.34 0 3 C0 2.01 0 1.02 0 0 Z " fill="#19497B" transform="translate(763,846)"/>
<path d="M0 0 C3.63 0 7.26 0 11 0 C9.68 1.65 8.36 3.3 7 5 C6.34 4.67 5.68 4.34 5 4 C5 3.34 5 2.68 5 2 C3.35 1.67 1.7 1.34 0 1 C0 0.67 0 0.34 0 0 Z " fill="#022260" transform="translate(650,667)"/>
<path d="M0 0 C2 0 2 0 4.375 2.1875 C6.72570111 4.70610834 8.89676626 7.27358589 11 10 C8.06120516 8.64763423 5.70767089 7.10057341 3.25 5 C2.63640625 4.484375 2.0228125 3.96875 1.390625 3.4375 C0 2 0 2 0 0 Z " fill="#2B91D4" transform="translate(613,601)"/>
<path d="M0 0 C0.66 0.33 1.32 0.66 2 1 C-0.625 4.875 -0.625 4.875 -4 6 C-4.99 7.485 -4.99 7.485 -6 9 C-6.66 8.67 -7.32 8.34 -8 8 C-5.58443874 4.80800833 -3.31996462 2.25283313 0 0 Z " fill="#2993DC" transform="translate(619,495)"/>
<path d="M0 0 C0.66 0.33 1.32 0.66 2 1 C2.40729228 3.32156597 2.74438677 5.6568787 3 8 C1.68 8 0.36 8 -1 8 C-0.67 5.36 -0.34 2.72 0 0 Z " fill="#E2EBF2" transform="translate(565,332)"/>
</svg>
